<svg width="933" height="659" fill="none" xmlns="http://www.w3.org/2000/svg"><path d="M555.5 654.5v-45h27v-36.9h-27V438.5h-36.3l-90.3 134.1v36.9h85.5v45h41.1zm-87-81.9l45.9-69.6v69.6h-45.9zM604.396 546.5c0 63 21.3 112.5 76.2 112.5 54.9 0 76.2-49.5 76.2-112.5s-21.3-112.5-76.2-112.5c-54.9 0-76.2 49.5-76.2 112.5zm114.9 0c0 43.8-12.3 79.5-38.7 79.5-6 0-11.1-1.8-15.3-5.1l49.2-116.1c3.3 12 4.8 26.4 4.8 41.7zm-77.4 0c0-43.8 12.3-79.5 38.7-79.5 5.7 0 10.8 1.8 15 5.1l-49.2 115.8c-3-11.7-4.5-26.1-4.5-41.4zM905.891 654.5v-45h27v-36.9h-27V438.5h-36.3l-90.3 134.1v36.9h85.5v45h41.1zm-87-81.9l45.9-69.6v69.6h-45.9z" fill="#3F709A" fill-opacity=".65"/><path d="M482.6 584v-45h27v-36.9h-27V368h-36.3L356 502.1V539h85.5v45h41.1zm-87-81.9l45.9-69.6v69.6h-45.9zM531.495 476c0 63 21.3 112.5 76.2 112.5 54.9 0 76.2-49.5 76.2-112.5s-21.3-112.5-76.2-112.5c-54.9 0-76.2 49.5-76.2 112.5zm114.9 0c0 43.8-12.3 79.5-38.7 79.5-6 0-11.1-1.8-15.3-5.1l49.2-116.1c3.3 12 4.8 26.4 4.8 41.7zm-77.4 0c0-43.8 12.3-79.5 38.7-79.5 5.7 0 10.8 1.8 15 5.1l-49.2 115.8c-3-11.7-4.5-26.1-4.5-41.4zM832.991 584v-45h27v-36.9h-27V368h-36.3l-90.3 134.1V539h85.5v45h41.1zm-87-81.9l45.9-69.6v69.6h-45.9z" fill="#844CFF" fill-opacity=".65"/><path d="M411.5 516.5v-45h27v-36.9h-27V300.5h-36.3l-90.3 134.1v36.9h85.5v45h41.1zm-87-81.9l45.9-69.6v69.6h-45.9zM460.396 408.5c0 63 21.3 112.5 76.2 112.5 54.9 0 76.2-49.5 76.2-112.5s-21.3-112.5-76.2-112.5c-54.9 0-76.2 49.5-76.2 112.5zm114.9 0c0 43.8-12.3 79.5-38.7 79.5-6 0-11.1-1.8-15.3-5.1l49.2-116.1c3.3 12 4.8 26.4 4.8 41.7zm-77.4 0c0-43.8 12.3-79.5 38.7-79.5 5.7 0 10.8 1.8 15 5.1l-49.2 115.8c-3-11.7-4.5-26.1-4.5-41.4zM761.891 516.5v-45h27v-36.9h-27V300.5h-36.3l-90.3 134.1v36.9h85.5v45h41.1zm-87-81.9l45.9-69.6v69.6h-45.9z" fill="#FFC368"/><path d="M338.6 446v-45h27v-36.9h-27V230h-36.3L212 364.1V401h85.5v45h41.1zm-87-81.9l45.9-69.6v69.6h-45.9zM387.495 338c0 63 21.3 112.5 76.2 112.5 54.9 0 76.2-49.5 76.2-112.5s-21.3-112.5-76.2-112.5c-54.9 0-76.2 49.5-76.2 112.5zm114.9 0c0 43.8-12.3 79.5-38.7 79.5-6 0-11.1-1.8-15.3-5.1l49.2-116.1c3.3 12 4.8 26.4 4.8 41.7zm-77.4 0c0-43.8 12.3-79.5 38.7-79.5 5.7 0 10.8 1.8 15 5.1l-49.2 115.8c-3-11.7-4.5-26.1-4.5-41.4zM688.991 446v-45h27v-36.9h-27V230h-36.3l-90.3 134.1V401h85.5v45h41.1zm-87-81.9l45.9-69.6v69.6h-45.9z" fill="#FF3D00" fill-opacity=".8"/><path d="M270.5 370.5v-45h27v-36.9h-27V154.5h-36.3l-90.3 134.1v36.9h85.5v45h41.1zm-87-81.9l45.9-69.6v69.6h-45.9zM319.396 262.5c0 63 21.3 112.5 76.2 112.5 54.9 0 76.2-49.5 76.2-112.5s-21.3-112.5-76.2-112.5c-54.9 0-76.2 49.5-76.2 112.5zm114.9 0c0 43.8-12.3 79.5-38.7 79.5-6 0-11.1-1.8-15.3-5.1l49.2-116.1c3.3 12 4.8 26.4 4.8 41.7zm-77.4 0c0-43.8 12.3-79.5 38.7-79.5 5.7 0 10.8 1.8 15 5.1l-49.2 115.8c-3-11.7-4.5-26.1-4.5-41.4zM620.891 370.5v-45h27v-36.9h-27V154.5h-36.3l-90.3 134.1v36.9h85.5v45h41.1zm-87-81.9l45.9-69.6v69.6h-45.9z" fill="#1DE9B6" fill-opacity=".8"/><path d="M197.6 300v-45h27v-36.9h-27V84h-36.3L71 218.1V255h85.5v45h41.1zm-87-81.9l45.9-69.6v69.6h-45.9zM246.495 192c0 63 21.3 112.5 76.2 112.5 54.9 0 76.2-49.5 76.2-112.5s-21.3-112.5-76.2-112.5c-54.9 0-76.2 49.5-76.2 112.5zm114.9 0c0 43.8-12.3 79.5-38.7 79.5-6 0-11.1-1.8-15.3-5.1l49.2-116.1c3.3 12 4.8 26.4 4.8 41.7zm-77.4 0c0-43.8 12.3-79.5 38.7-79.5 5.7 0 10.8 1.8 15 5.1l-49.2 115.8c-3-11.7-4.5-26.1-4.5-41.4zM547.991 300v-45h27v-36.9h-27V84h-36.3l-90.3 134.1V255h85.5v45h41.1zm-87-81.9l45.9-69.6v69.6h-45.9z" fill="#647BFE" fill-opacity=".65"/><path d="M126.6 221v-45h27v-36.9h-27V5H90.3L0 139.1V176h85.5v45h41.1zm-87-81.9l45.9-69.6v69.6H39.6zM175.495 113c0 63 21.3 112.5 76.2 112.5 54.9 0 76.2-49.5 76.2-112.5S306.595.5 251.695.5c-54.9 0-76.2 49.5-76.2 112.5zm114.9 0c0 43.8-12.3 79.5-38.7 79.5-6 0-11.1-1.8-15.3-5.1l49.2-116.1c3.3 12 4.8 26.4 4.8 41.7zm-77.4 0c0-43.8 12.3-79.5 38.7-79.5 5.7 0 10.8 1.8 15 5.1l-49.2 115.8c-3-11.7-4.5-26.1-4.5-41.4zM476.991 221v-45h27v-36.9h-27V5h-36.3l-90.3 134.1V176h85.5v45h41.1zm-87-81.9l45.9-69.6v69.6h-45.9z" fill="#DE03AE" fill-opacity=".65"/></svg>