<svg width="859" height="861" viewBox="0 0 859 861" fill="none" xmlns="http://www.w3.org/2000/svg">
<path d="M429.461 431.053L673.179 94.7335C726.254 133.195 769.472 183.671 799.301 242.036C829.13 300.4 844.722 364.996 844.803 430.541C844.883 496.086 829.45 560.72 799.765 619.158C770.08 677.596 726.986 728.179 674.006 766.771L429.461 431.053Z" fill="#DBDBDB" stroke="#2E2E2E" stroke-width="5" stroke-linejoin="round"/>
<path d="M429.461 431.053L674.006 766.771C621.027 805.363 559.665 830.868 494.94 841.201C430.214 851.534 363.962 846.402 301.6 826.224C239.237 806.046 182.536 771.396 136.132 725.105C89.727 678.815 54.9368 622.199 34.6054 559.887L429.461 431.053Z" fill="#8B8B8B" stroke="#2E2E2E" stroke-width="5" stroke-linejoin="round"/>
<path d="M429.461 431.052L34.6056 559.886C14.2743 497.574 8.97907 431.334 19.1529 366.583C29.3268 301.832 54.6809 240.409 93.1421 187.334L429.461 431.052Z" fill="#363334" stroke="#2E2E2E" stroke-width="5" stroke-linejoin="round"/>
<path d="M429.461 431.052L93.1419 187.334C131.603 134.26 182.08 91.0411 240.444 61.2123C298.809 31.3835 363.404 15.7914 428.95 15.7107L429.461 431.052Z" fill="#4A4A4A" stroke="#2E2E2E" stroke-width="5" stroke-linejoin="round"/>
<path d="M429.461 431.052L428.95 15.7107C516.661 15.6027 602.156 43.2651 673.179 94.7334L429.461 431.052Z" fill="#696868" stroke="#2E2E2E" stroke-width="5" stroke-linejoin="round"/>
<path d="M429.703 431.141L681.066 84.273C735.805 123.941 780.379 176 811.143 236.195C841.908 296.391 857.989 363.012 858.072 430.613C858.155 498.214 842.238 564.875 811.622 625.146C781.006 685.417 736.56 737.586 681.919 777.388L429.703 431.141Z" fill="#647BFE"/>
<mask id="mask0" mask-type="alpha" maskUnits="userSpaceOnUse" x="372" y="81" width="485" height="721">
<path d="M372.757 425.818L678.926 81.3704C733.666 121.038 778.24 173.098 809.004 233.293C839.769 293.488 855.85 360.11 855.933 427.711C856.016 495.312 840.099 561.973 809.483 622.244C778.867 682.514 708.961 760.943 654.32 800.745L372.757 425.818Z" fill="#647BFE"/>
</mask>
<g mask="url(#mask0)">
<mask id="mask1" mask-type="alpha" maskUnits="userSpaceOnUse" x="301" y="52" width="830" height="730">
<path fill-rule="evenodd" clip-rule="evenodd" d="M793.833 163.627C856.325 181.253 928.018 164.255 979.589 203.686C1035.39 246.349 1070.99 313.183 1080.41 382.738C1089.91 452.864 1066.14 522.38 1031.11 583.869C996.345 644.892 950.041 703.428 884.013 727.489C820.381 750.676 750.024 733.167 686.584 709.414C631.013 688.606 593.246 642.851 549.873 602.378C502.365 558.046 447.208 521.733 421.523 462.074C389.26 387.139 353.854 299.961 387.726 225.764C421.95 150.794 508.151 106.185 589.684 93.71C662.563 82.5591 722.867 143.61 793.833 163.627Z" fill="#FFC368"/>
</mask>
<g mask="url(#mask1)">
<path fill-rule="evenodd" clip-rule="evenodd" d="M799.144 -170.901L-204.172 526.211L-206.664 524.54L796.652 -172.572L799.144 -170.901Z" fill="black" fill-opacity="0.5"/>
<path fill-rule="evenodd" clip-rule="evenodd" d="M951.59 -132.326L-51.7266 564.786L-54.2183 563.116L949.098 -133.996L951.59 -132.326Z" fill="black" fill-opacity="0.5"/>
<path fill-rule="evenodd" clip-rule="evenodd" d="M1082.23 -68.9694L78.918 628.143L76.4263 626.472L1079.74 -70.6402L1082.23 -68.9694Z" fill="black" fill-opacity="0.5"/>
<path fill-rule="evenodd" clip-rule="evenodd" d="M1234.68 -30.3942L231.363 666.718L228.872 665.047L1232.19 -32.065L1234.68 -30.3942Z" fill="black" fill-opacity="0.5"/>
<path fill-rule="evenodd" clip-rule="evenodd" d="M1379.3 39.3047L375.988 736.417L373.496 734.746L1376.81 37.634L1379.3 39.3047Z" fill="black" fill-opacity="0.5"/>
<path fill-rule="evenodd" clip-rule="evenodd" d="M1531.75 77.8799L528.433 774.992L525.941 773.321L1529.26 76.2092L1531.75 77.8799Z" fill="black" fill-opacity="0.5"/>
<path fill-rule="evenodd" clip-rule="evenodd" d="M1662.39 141.236L659.078 838.348L656.586 836.677L1659.9 139.565L1662.39 141.236Z" fill="black" fill-opacity="0.5"/>
<path fill-rule="evenodd" clip-rule="evenodd" d="M1814.84 179.811L811.523 876.923L809.032 875.253L1812.35 178.141L1814.84 179.811Z" fill="black" fill-opacity="0.5"/>
<path fill-rule="evenodd" clip-rule="evenodd" d="M874.922 -156.01L-128.394 541.102L-130.886 539.431L872.431 -157.681L874.922 -156.01Z" fill="black" fill-opacity="0.5"/>
<path fill-rule="evenodd" clip-rule="evenodd" d="M1027.37 -117.435L24.0518 579.677L21.5601 578.007L1024.88 -119.106L1027.37 -117.435Z" fill="black" fill-opacity="0.5"/>
<path fill-rule="evenodd" clip-rule="evenodd" d="M1158.01 -54.0788L154.697 643.033L152.205 641.363L1155.52 -55.7496L1158.01 -54.0788Z" fill="black" fill-opacity="0.5"/>
<path fill-rule="evenodd" clip-rule="evenodd" d="M1310.46 -15.5034L307.143 681.609L304.651 679.938L1307.97 -17.1741L1310.46 -15.5034Z" fill="black" fill-opacity="0.5"/>
<path fill-rule="evenodd" clip-rule="evenodd" d="M1455.08 54.1951L451.767 751.307L449.275 749.636L1452.59 52.5244L1455.08 54.1951Z" fill="black" fill-opacity="0.5"/>
<path fill-rule="evenodd" clip-rule="evenodd" d="M1607.53 92.7706L604.212 789.883L601.72 788.212L1605.04 91.0998L1607.53 92.7706Z" fill="black" fill-opacity="0.5"/>
<path fill-rule="evenodd" clip-rule="evenodd" d="M1738.17 156.127L734.856 853.239L732.365 851.568L1735.68 154.456L1738.17 156.127Z" fill="black" fill-opacity="0.5"/>
</g>
</g>
<path d="M429.703 431.139L681.918 777.387C627.277 817.189 563.991 843.494 497.235 854.152C430.479 864.809 362.149 859.516 297.831 838.705C233.513 817.895 175.033 782.157 127.173 734.415C79.3132 686.672 43.4318 628.281 22.4628 564.014L429.703 431.139Z" fill="#78C0E0"/>
<mask id="mask2" mask-type="alpha" maskUnits="userSpaceOnUse" x="18" y="408" width="673" height="452">
<path d="M437.248 409.147L690.452 765.277C635.811 805.08 562.425 842.485 495.669 853.143C428.913 863.8 360.583 858.507 296.265 837.696C231.947 816.885 173.467 781.148 125.607 733.406C77.7469 685.663 40.1074 610.15 19.1384 545.883L437.248 409.147Z" fill="#78C0E0"/>
</mask>
<g mask="url(#mask2)">
<mask id="mask3" mask-type="alpha" maskUnits="userSpaceOnUse" x="-16" y="127" width="860" height="918">
<path fill-rule="evenodd" clip-rule="evenodd" d="M639.025 726.298C605.825 782.099 603.688 855.748 552.254 895.357C496.602 938.214 422.833 955.299 353.208 946.401C283.011 937.43 222.019 896.473 171.691 846.722C121.744 797.349 77.1872 737.473 71.0358 667.467C65.1076 600.002 100.229 536.574 139.593 481.444C174.074 433.152 228.046 408.514 278.365 377.094C333.483 342.678 382.834 298.8 447.108 289.431C527.84 277.662 621.211 266.026 684.113 317.947C747.671 370.409 768.449 465.218 759.397 547.201C751.305 620.483 676.727 662.931 639.025 726.298Z" fill="#FFC368"/>
</mask>
<g mask="url(#mask3)">
<line y1="-1.5" x2="1221.72" y2="-1.5" transform="matrix(0.338605 0.940929 -0.75291 0.658123 547.098 -331.545)" stroke="black" stroke-opacity="0.5" stroke-width="3"/>
<line y1="-1.5" x2="1221.72" y2="-1.5" transform="matrix(0.338605 0.940929 -0.75291 0.658123 470.381 -194.277)" stroke="black" stroke-opacity="0.5" stroke-width="3"/>
<line y1="-1.5" x2="1221.72" y2="-1.5" transform="matrix(0.338605 0.940929 -0.75291 0.658123 375.371 -84.4822)" stroke="black" stroke-opacity="0.5" stroke-width="3"/>
<line y1="-1.5" x2="1221.72" y2="-1.5" transform="matrix(0.338605 0.940929 -0.75291 0.658123 298.654 52.7849)" stroke="black" stroke-opacity="0.5" stroke-width="3"/>
<line y1="-1.5" x2="1221.72" y2="-1.5" transform="matrix(0.338605 0.940929 -0.75291 0.658123 193.898 174.442)" stroke="black" stroke-opacity="0.5" stroke-width="3"/>
<line y1="-1.5" x2="1221.72" y2="-1.5" transform="matrix(0.338605 0.940929 -0.75291 0.658123 117.182 311.709)" stroke="black" stroke-opacity="0.5" stroke-width="3"/>
<line y1="-1.5" x2="1221.72" y2="-1.5" transform="matrix(0.338605 0.940929 -0.75291 0.658123 22.1714 421.504)" stroke="black" stroke-opacity="0.5" stroke-width="3"/>
<line y1="-1.5" x2="1221.72" y2="-1.5" transform="matrix(0.338605 0.940929 -0.75291 0.658123 -54.5459 558.771)" stroke="black" stroke-opacity="0.5" stroke-width="3"/>
<line y1="-1.5" x2="1221.72" y2="-1.5" transform="matrix(0.338605 0.940929 -0.75291 0.658123 513.102 -262.202)" stroke="black" stroke-opacity="0.5" stroke-width="3"/>
<line y1="-1.5" x2="1221.72" y2="-1.5" transform="matrix(0.338605 0.940929 -0.75291 0.658123 436.385 -124.935)" stroke="black" stroke-opacity="0.5" stroke-width="3"/>
<line y1="-1.5" x2="1221.72" y2="-1.5" transform="matrix(0.338605 0.940929 -0.75291 0.658123 341.374 -15.1394)" stroke="black" stroke-opacity="0.5" stroke-width="3"/>
<line y1="-1.5" x2="1221.72" y2="-1.5" transform="matrix(0.338605 0.940929 -0.75291 0.658123 264.657 122.128)" stroke="black" stroke-opacity="0.5" stroke-width="3"/>
<line y1="-1.5" x2="1221.72" y2="-1.5" transform="matrix(0.338605 0.940929 -0.75291 0.658123 159.902 243.785)" stroke="black" stroke-opacity="0.5" stroke-width="3"/>
<line y1="-1.5" x2="1221.72" y2="-1.5" transform="matrix(0.338605 0.940929 -0.75291 0.658123 83.1855 381.052)" stroke="black" stroke-opacity="0.5" stroke-width="3"/>
<line y1="-1.5" x2="1221.72" y2="-1.5" transform="matrix(0.338605 0.940929 -0.75291 0.658123 -11.8252 490.846)" stroke="black" stroke-opacity="0.5" stroke-width="3"/>
<line y1="-1.5" x2="1221.72" y2="-1.5" transform="matrix(0.338605 0.940929 -0.75291 0.658123 -88.542 628.114)" stroke="black" stroke-opacity="0.5" stroke-width="3"/>
</g>
</g>
<path d="M429.703 431.141L22.463 564.015C1.49396 499.749 -3.96736 431.432 6.52559 364.65C17.0185 297.868 43.1678 234.518 82.8354 179.778L429.703 431.141Z" fill="#F06543"/>
<mask id="mask4" mask-type="alpha" maskUnits="userSpaceOnUse" x="3" y="165" width="452" height="417">
<path d="M454.707 436.992L29.5769 581.16C8.60784 516.893 -2.45058 429.999 8.04236 363.217C18.5353 296.435 50.4888 220.809 90.1564 166.07L454.707 436.992Z" fill="#F06543" fill-opacity="0.6"/>
</mask>
<g mask="url(#mask4)">
<mask id="mask5" mask-type="alpha" maskUnits="userSpaceOnUse" x="-335" y="-248" width="934" height="943">
<path fill-rule="evenodd" clip-rule="evenodd" d="M-82.258 379.442C-121.581 327.773 -189.08 298.232 -206.564 235.712C-225.481 168.067 -213.721 93.2636 -179.415 32.0267C-144.828 -29.7127 -84.0227 -70.9476 -19.054 -99.0021C45.4222 -126.844 117.622 -145.758 184.843 -125.266C249.625 -105.518 295.302 -49.2124 331.697 7.92174C363.577 57.9685 366.229 117.238 376.536 175.659C387.826 239.651 410.049 301.836 394.686 364.947C375.389 444.217 351.24 535.158 279.553 574.061C207.119 613.37 111.423 597.161 38.7833 558.087C-26.1464 523.161 -37.6026 438.117 -82.258 379.442Z" fill="#FFC368"/>
</mask>
<g mask="url(#mask5)">
<line y1="-1.5" x2="1221.72" y2="-1.5" transform="matrix(-0.999274 -0.0380968 -0.328565 -0.944481 834.541 567.535)" stroke="black" stroke-opacity="0.5" stroke-width="3"/>
<line y1="-1.5" x2="1221.72" y2="-1.5" transform="matrix(-0.999274 -0.0380968 -0.328565 -0.944481 768.277 438.341)" stroke="black" stroke-opacity="0.5" stroke-width="3"/>
<line y1="-1.5" x2="1221.72" y2="-1.5" transform="matrix(-0.999274 -0.0380968 -0.328565 -0.944481 669.69 315.832)" stroke="black" stroke-opacity="0.5" stroke-width="3"/>
<line y1="-1.5" x2="1221.72" y2="-1.5" transform="matrix(-0.999274 -0.0380968 -0.328565 -0.944481 596.072 173.163)" stroke="black" stroke-opacity="0.5" stroke-width="3"/>
<line y1="-1.5" x2="1221.72" y2="-1.5" transform="matrix(-0.999274 -0.0380968 -0.328565 -0.944481 782.958 510.06)" stroke="black" stroke-opacity="0.5" stroke-width="3"/>
<line y1="-1.5" x2="1221.72" y2="-1.5" transform="matrix(-0.999274 -0.0380968 -0.328565 -0.944481 716.693 380.866)" stroke="black" stroke-opacity="0.5" stroke-width="3"/>
<line y1="-1.5" x2="1221.72" y2="-1.5" transform="matrix(-0.999274 -0.0380968 -0.328565 -0.944481 618.107 258.357)" stroke="black" stroke-opacity="0.5" stroke-width="3"/>
</g>
</g>
<path d="M429.703 431.14L82.8355 179.778C122.503 125.038 174.563 80.4644 234.758 49.7C294.953 18.9356 361.575 2.85445 429.176 2.77124L429.703 431.14Z" fill="#1DE9B6" fill-opacity="0.6"/>
<mask id="mask6" mask-type="alpha" maskUnits="userSpaceOnUse" x="82" y="2" width="365" height="457">
<path d="M443.372 457.765L82.3907 178.883C122.058 124.143 174.118 79.5694 234.313 48.805C294.508 18.0406 377.92 2.34713 445.521 2.26392L443.372 457.765Z" fill="#1DE9B6"/>
</mask>
<g mask="url(#mask6)">
<mask id="mask7" mask-type="alpha" maskUnits="userSpaceOnUse" x="29" y="-109" width="666" height="780">
<path fill-rule="evenodd" clip-rule="evenodd" d="M96.7339 278.507C96.0391 213.58 59.5305 149.581 82.8334 88.9894C108.047 23.4298 162.144 -29.5545 226.226 -58.1954C290.834 -87.0714 364.231 -83.8445 433.099 -67.5588C501.445 -51.3965 570.656 -23.4609 612.345 33.1133C652.521 87.6344 655.544 160.074 650.627 227.637C646.32 286.818 613.059 335.947 586.446 388.966C557.295 447.041 537.993 510.193 487.988 551.647C425.179 603.716 351.508 662.249 270.773 650.655C189.198 638.94 122.11 568.8 87.1683 494.085C55.9355 427.3 97.5229 352.238 96.7339 278.507Z" fill="#FFC368"/>
</mask>
<g mask="url(#mask7)">
<line y1="-1.5" x2="1221.72" y2="-1.5" transform="matrix(-0.778861 -0.627196 0.300349 -0.953829 725.815 1133.92)" stroke="black" stroke-opacity="0.5" stroke-width="3"/>
<line y1="-1.5" x2="1221.72" y2="-1.5" transform="matrix(-0.778861 -0.627196 0.300349 -0.953829 719.877 976.785)" stroke="black" stroke-opacity="0.5" stroke-width="3"/>
<line y1="-1.5" x2="1221.72" y2="-1.5" transform="matrix(-0.778861 -0.627196 0.300349 -0.953829 743.858 833.583)" stroke="black" stroke-opacity="0.5" stroke-width="3"/>
<line y1="-1.5" x2="1221.72" y2="-1.5" transform="matrix(-0.778861 -0.627196 0.300349 -0.953829 737.919 676.445)" stroke="black" stroke-opacity="0.5" stroke-width="3"/>
<line y1="-1.5" x2="1221.72" y2="-1.5" transform="matrix(-0.778861 -0.627196 0.300349 -0.953829 764.046 518.042)" stroke="black" stroke-opacity="0.5" stroke-width="3"/>
<line y1="-1.5" x2="1221.72" y2="-1.5" transform="matrix(-0.778861 -0.627196 0.300349 -0.953829 758.108 360.904)" stroke="black" stroke-opacity="0.5" stroke-width="3"/>
<line y1="-1.5" x2="1221.72" y2="-1.5" transform="matrix(-0.778861 -0.627196 0.300349 -0.953829 782.088 217.702)" stroke="black" stroke-opacity="0.5" stroke-width="3"/>
<line y1="-1.5" x2="1221.72" y2="-1.5" transform="matrix(-0.778861 -0.627196 0.300349 -0.953829 776.15 60.563)" stroke="black" stroke-opacity="0.5" stroke-width="3"/>
<line y1="-1.5" x2="1221.72" y2="-1.5" transform="matrix(-0.778861 -0.627196 0.300349 -0.953829 718.753 1057.02)" stroke="black" stroke-opacity="0.5" stroke-width="3"/>
<line y1="-1.5" x2="1221.72" y2="-1.5" transform="matrix(-0.778861 -0.627196 0.300349 -0.953829 712.814 899.881)" stroke="black" stroke-opacity="0.5" stroke-width="3"/>
<line y1="-1.5" x2="1221.72" y2="-1.5" transform="matrix(-0.778861 -0.627196 0.300349 -0.953829 736.794 756.679)" stroke="black" stroke-opacity="0.5" stroke-width="3"/>
<line y1="-1.5" x2="1221.72" y2="-1.5" transform="matrix(-0.778861 -0.627196 0.300349 -0.953829 730.856 599.54)" stroke="black" stroke-opacity="0.5" stroke-width="3"/>
<line y1="-1.5" x2="1221.72" y2="-1.5" transform="matrix(-0.778861 -0.627196 0.300349 -0.953829 756.983 441.138)" stroke="black" stroke-opacity="0.5" stroke-width="3"/>
<line y1="-1.5" x2="1221.72" y2="-1.5" transform="matrix(-0.778861 -0.627196 0.300349 -0.953829 751.045 284)" stroke="black" stroke-opacity="0.5" stroke-width="3"/>
<line y1="-1.5" x2="1221.72" y2="-1.5" transform="matrix(-0.778861 -0.627196 0.300349 -0.953829 775.025 140.797)" stroke="black" stroke-opacity="0.5" stroke-width="3"/>
</g>
</g>
<path d="M429.703 431.14L429.176 2.77136C519.639 2.66001 607.814 31.1901 681.066 84.2726L429.703 431.14Z" fill="#FEB13D"/>
<mask id="mask8" mask-type="alpha" maskUnits="userSpaceOnUse" x="420" y="0" width="273" height="453">
<path d="M422.932 452.653L420.394 0.689724C510.857 0.578371 619.001 37.7692 692.252 90.8517L422.932 452.653Z" fill="#FEB13D" fill-opacity="0.6"/>
</mask>
<g mask="url(#mask8)">
<path d="M-398.8 502.159L510.187 -314.143M-242.744 521.506L666.244 -294.796M-105.244 568.149L803.744 -248.153M50.812 587.496L959.8 -228.806M202.972 638.697L1111.96 -177.605M359.027 658.044L1268.02 -158.258M496.528 704.687L1405.52 -111.615M652.584 724.034L1561.57 -92.2679M-321.759 507.525L587.229 -308.777M-165.703 526.872L743.285 -289.43M-28.2024 573.515L880.786 -242.787M127.854 592.862L1036.84 -223.44M280.013 644.063L1189 -172.24M436.069 663.41L1345.06 -152.892M573.569 710.053L1482.56 -106.249M729.625 729.4L1638.61 -86.9021" stroke="black" stroke-opacity="0.5" stroke-width="3"/>
</g>
</svg>
