<svg width="25" height="26" viewBox="0 0 25 26" fill="none" xmlns="http://www.w3.org/2000/svg">
<path fill-rule="evenodd" clip-rule="evenodd" d="M11.0477 3.45223C12.2027 2.29728 13.7691 1.64844 15.4024 1.64844H18.4817C19.0486 1.64844 19.5081 2.10798 19.5081 2.67486V6.78055C19.5081 7.34743 19.0486 7.80697 18.4817 7.80697H15.4024V9.85982H18.4817C18.7978 9.85982 19.0962 10.0054 19.2907 10.2546C19.4853 10.5037 19.5541 10.8286 19.4775 11.1352L18.4511 15.2409C18.3368 15.6978 17.9263 16.0184 17.4553 16.0184H15.4024V23.2033C15.4024 23.7702 14.9429 24.2297 14.376 24.2297H10.2703C9.70346 24.2297 9.24391 23.7702 9.24391 23.2033V16.0184H7.19107C6.62419 16.0184 6.16464 15.5588 6.16464 14.9919V10.8862C6.16464 10.3194 6.62419 9.85982 7.19107 9.85982H9.24391V7.80697C9.24391 6.17363 9.89275 4.60718 11.0477 3.45223ZM15.4024 3.70128C14.3135 3.70128 13.2693 4.13385 12.4993 4.90381C11.7293 5.67378 11.2968 6.71808 11.2968 7.80697V10.8862C11.2968 11.4531 10.8372 11.9127 10.2703 11.9127H8.21749V13.9655H10.2703C10.8372 13.9655 11.2968 14.4251 11.2968 14.9919V22.1769H13.3496V14.9919C13.3496 14.4251 13.8091 13.9655 14.376 13.9655H16.6539L17.1671 11.9127H14.376C13.8091 11.9127 13.3496 11.4531 13.3496 10.8862V7.80697C13.3496 7.26252 13.5659 6.74038 13.9509 6.35539C14.3358 5.97041 14.858 5.75413 15.4024 5.75413H17.4553V3.70128H15.4024Z" fill="#231F20"/>
</svg>
