<svg width="24" height="24" viewBox="0 0 24 24" fill="none" xmlns="http://www.w3.org/2000/svg">
<path d="M9.21586 18.0959C14.8739 18.0959 17.9699 13.4039 17.9699 9.34193C17.9699 9.20993 17.9699 9.07793 17.9639 8.94593C18.5639 8.51393 19.0859 7.96793 19.4999 7.34993C18.9479 7.59593 18.3539 7.75793 17.7299 7.83593C18.3659 7.45793 18.8519 6.85193 19.0859 6.13193C18.4919 6.48593 17.8319 6.73793 17.1299 6.87593C16.5659 6.27593 15.7679 5.90393 14.8859 5.90393C13.1879 5.90393 11.8079 7.28393 11.8079 8.98193C11.8079 9.22193 11.8379 9.45593 11.8859 9.68393C9.32986 9.55793 7.06186 8.32793 5.54386 6.46793C5.27986 6.92393 5.12986 7.45193 5.12986 8.01593C5.12986 9.08393 5.67586 10.0259 6.49786 10.5779C5.99386 10.5599 5.51986 10.4219 5.10586 10.1939C5.10586 10.2059 5.10586 10.2179 5.10586 10.2359C5.10586 11.7239 6.16786 12.9719 7.57186 13.2539C7.31386 13.3259 7.04386 13.3619 6.76186 13.3619C6.56386 13.3619 6.37186 13.3439 6.18586 13.3079C6.57586 14.5319 7.71586 15.4199 9.05986 15.4439C8.00386 16.2719 6.67786 16.7639 5.23786 16.7639C4.99186 16.7639 4.74586 16.7519 4.50586 16.7219C5.86186 17.5859 7.48186 18.0959 9.21586 18.0959Z" fill="black"/>
</svg>
