<svg width="135" height="186" fill="none" xmlns="http://www.w3.org/2000/svg"><path d="M133.1 186.5c-4.4-6.9-17.3-28.5-29.4-59.2h12.5a9.2 9.2 0 000-18.4H97l-3-9.2H98a9.2 9.2 0 000-18.3h-9a313.7 313.7 0 01-8.7-55h8.5a9.2 9.2 0 000-18.4h-9.2c0-11.9-7.6-22-18.3-25.9v-10.7a9.2 9.2 0 00-18.3 0V-18a27.5 27.5 0 00-18.4 26h-9.1a9.2 9.2 0 000 18.3h8.5a313.7 313.7 0 01-8.8 55h-9a9.2 9.2 0 000 18.3h4L7 109h-19.3a9.2 9.2 0 000 18.4H.4a364 364 0 01-29.5 59.2 9.2 9.2 0 007.8 14.1h36.7c3.9 0 7.4-2.5 8.6-6.3l3.2-9.9c7.3-23 10-29.6 24.8-29.6s17.6 6.6 24.8 29.6l3.2 10a9.2 9.2 0 008.7 6.2h36.7a9.2 9.2 0 007.7-14zM52.1-1c5 0 9.1 4 9.1 9.1H42.9c0-5 4-9.1 9.1-9.1zm-9.9 27.5h19.7c1.2 18.7 4 37.2 8.2 55H34a334 334 0 008.3-55zM29.1 99.7H75l2.8 9.2H26.3l2.8-9.2zm66.3 82.6l-1-3.4c-7-21.8-13.5-42.5-42.4-42.5S16.6 157.1 9.8 179l-1.1 3.4H-5.2c9-15.9 17.7-34.6 25.2-55h64a388.2 388.2 0 0025.3 55h-14z" fill="#fff"/></svg>