<svg width="50" height="36" fill="none" xmlns="http://www.w3.org/2000/svg"><path d="M39.2 0c-1.6 0-2.2 2-1 2.9l4.5 3.6h-8.3c-.6 0-1 .3-1.5.8L28 15l-5.3-7.7c-.3-.5-.8-.8-1.3-.8H1.7c-2.3 0-2.3 3.4 0 3.3h18.7l5.5 8.3-5.5 8H1.7c-2.3 0-2.3 3.5 0 3.3h19.6c.5 0 1-.2 1.3-.6l5.2-7.9 5.1 7.9c.4.4 1 .6 1.5.6h8.3l-4.5 3.7c-1.7 1.3.4 4 2 2.5l8.3-6.6c.8-.6.8-1.8 0-2.4L40.3 20c-.4-.2-.8-.4-1.2-.4-1.5.2-2 2-1 2.9l4.6 3.7h-7.4L29.8 18l5.5-8.3h7.4l-4.5 3.7c-1.9 1.3.4 4 2 2.5l8.3-6.6c.8-.6.8-1.8 0-2.5L40.3.4c-.3-.3-.7-.4-1-.4z" fill="#fff"/></svg>