<svg width="29" height="29" fill="none" xmlns="http://www.w3.org/2000/svg"><g clip-path="url(#clip0)" fill-rule="evenodd" clip-rule="evenodd" fill="#000"><path d="M1.2 3.6c.7 0 1.2.6 1.2 1.2v6h6a1.2 1.2 0 110 2.5H1.3C.5 13.3 0 12.8 0 12V4.8c0-.6.5-1.2 1.2-1.2zM19.3 17c0-.8.6-1.3 1.2-1.3h7.3c.7 0 1.2.5 1.2 1.2v7.3a1.2 1.2 0 11-2.4 0v-6h-6c-.7 0-1.3-.6-1.3-1.3z"/><path d="M11.1 2.9A12 12 0 0126 10.5a1.2 1.2 0 01-2.3.8 9.7 9.7 0 00-16-3.6L2 13a1.2 1.2 0 01-1.6-1.8L6 5.9A12 12 0 0111 3zm17.6 13.2c.4.5.4 1.2 0 1.7L23 23.1a12 12 0 01-19.9-4.6 1.2 1.2 0 112.3-.8 9.7 9.7 0 0016 3.6L27 16c.5-.4 1.2-.4 1.7 0z"/></g><defs><clipPath id="clip0"><path d="M0 0h29v29H0V0z" fill="#fff"/></clipPath></defs></svg>