<svg width="26" height="25" viewBox="0 0 26 25" fill="none" xmlns="http://www.w3.org/2000/svg">
<g clip-path="url(#clip0)">
<path d="M9.373 22.7164C6.7043 22.7164 3.93296 21.9979 1.46954 20.5609C1.05897 20.3556 0.85369 19.8424 0.956333 19.4318C1.05897 19.0213 1.46954 18.7133 1.88011 18.7133C3.62503 18.816 5.36995 18.4054 6.90958 17.6869C3.11182 15.3261 2.0854 12.0416 1.98276 9.47554C1.88011 6.49891 2.90654 4.0355 3.00918 3.93286C3.11182 3.62493 3.41975 3.317 3.83032 3.317C4.24089 3.317 4.54881 3.41964 4.7541 3.72757C6.49902 6.19099 9.16772 7.73062 12.1443 7.9359C12.1443 6.29363 12.8628 4.75399 14.0945 3.62493C16.25 1.77737 19.4319 1.77737 21.5874 3.62493C22.4086 3.317 23.2297 2.90643 23.9482 2.39322C24.2561 2.18794 24.7693 2.18794 25.0773 2.39322C25.3852 2.59851 25.5905 3.11172 25.4878 3.52229C25.1799 4.95928 24.4614 6.29363 23.435 7.42269C23.435 7.62798 23.435 7.73062 23.435 7.9359C23.435 13.5812 20.9716 18.3028 16.558 20.7662C14.4025 22.1005 11.9391 22.7164 9.373 22.7164ZM5.9858 20.253C9.373 21.0741 12.7602 20.6635 15.6342 19.0213C19.3293 16.8658 21.4848 12.7601 21.4848 7.9359C21.4848 7.73062 21.4848 7.52534 21.3821 7.32005C21.2795 7.01212 21.3821 6.60155 21.6901 6.39627C21.8954 6.19099 22.1006 5.88306 22.3059 5.67777C22.1006 5.78042 21.7927 5.88306 21.5874 5.88306C21.1769 5.9857 20.7663 5.88306 20.561 5.57513C19.2267 4.13814 16.9685 3.93286 15.5315 5.26721C14.6078 5.88306 14.1972 6.90948 14.1972 7.9359V8.96233C14.1972 9.47554 13.7866 9.98875 13.1708 9.98875C9.78357 10.0914 6.60166 8.75704 4.34353 6.39627C3.72767 9.06497 3.52239 14.0944 9.47564 16.6605C9.78357 16.8658 10.0915 17.1737 10.0915 17.5843C10.0915 17.9948 9.98885 18.3028 9.68093 18.5081C8.44922 19.3292 7.21751 19.945 5.9858 20.253Z" fill="#231F20"/>
</g>
<defs>
<clipPath id="clip0">
<path d="M0.853516 0.237793H25.4877V24.8719H0.853516V0.237793Z" fill="white"/>
</clipPath>
</defs>
</svg>
