<svg width="751" height="353" fill="none" xmlns="http://www.w3.org/2000/svg"><path d="M156 149V92h21.8V80h-57.2V92h21.9V149h13.4zm82.1 0v-12.2H201v-17h31.5v-12.2h-31.5V92.1h36.3V79.9h-49.8V149h50.7zm18.4-34.6c0-14.6 7-24.2 18.7-24.2 8.7 0 14.7 4.4 16.7 13.3l13.4-3.6c-3.4-13.6-14.4-21.5-30-21.5-21.2 0-32.7 15.5-32.7 36 0 20.6 11.8 36 33 36 16.3 0 25.7-8.2 29.7-21.4l-13.4-3.5c-2.5 8.6-8 13.2-16.4 13.2-12 0-19-9.6-19-24.3zM330 149v-29.2h30.7V149H374V79.9h-13.4v27.7H330V80h-13.5V149H330zm71.2 0v-47l31.8 47h13.6V79.9h-13v47l-31.8-47h-13.6V149h13zm72.9 0V79.9h-13.5V149H474zm11.1-34.6c0 20.6 11.8 36 33 36 5.8 0 11-1.2 15.3-3.4l6.8 7.7 8.6-7.7-6.3-7a39.4 39.4 0 008.4-25.6c0-20.5-11.8-36-32.8-36-21.2 0-33 15.5-33 36zm32.9 15.1l6.8 7.9c-2 .8-4.2 1.3-6.7 1.3-12 0-19-9.6-19-24.3 0-14.6 7.2-24.2 19-24.2 11.6 0 18.8 9.6 18.8 24.2a30 30 0 01-3.6 15.2l-6.8-7.8-8.5 7.7zm88-10.4c0 13.3-5 19.1-15.1 19.1s-15.4-5.8-15.4-19V79.8h-13.4V120c0 18.4 10 30.4 28.7 30.4 18.9 0 28.7-12 28.7-30.4V80h-13.6V119zm78.2 29.9v-12.2h-37.3v-17h31.5v-12.2H647V92.1h36.3V79.9h-49.7V149h50.7zm7.5-22c1.1 14.9 10.5 23.4 28.6 23.4 12.8 0 26.2-6.7 26.2-21.2 0-11.2-7-17-17.1-19.8-6.6-1.9-14.5-4-17.7-5.3-3.4-1.4-4.8-3.3-4.8-6.2 0-5 5-7.7 11.5-7.7 8.3 0 11.7 4 12.6 10.1l13.3-.6c-1-14.4-10.2-21.3-26.3-21.3-12.2 0-24 6.7-24 20.7 0 6.5 2 13.6 14.3 17.4 4 1.3 13.1 3.5 16.8 4.9 5.4 1.9 7.4 4.3 7.4 8.3 0 6-5.3 9-12.6 9-8.9 0-14.3-3.5-15.1-12.5l-13 .7z" fill="#2E2E2E"/><mask id="a" maskUnits="userSpaceOnUse" x="258" y="127" width="55" height="36"><path fill="#C4C4C4" d="M258 127h55v36h-55z"/></mask><g mask="url(#a)"><path d="M107.4 234v-69.1H94V234h13.4zm27.1 0v-47l31.8 47H180v-69.1h-13v47l-31.8-47h-13.6V234h13zm90.4 0v-57h21.8V165h-57.2V177h22V234h13.4zm31.5 0v-69.1H306V177h-36.3v15.5h31.5v12.2h-31.5v17h37.3V234h-50.7zm17.8-77h10.9l11.8-18h-15.4l-7.3 18zm51.3 42.4c0-14.6 7.2-24.2 19.5-24.2 8.2 0 13.8 4.3 16 13l13.4-3.6c-3.3-14.4-13.6-21.2-29.3-21.2-21.8 0-33.6 15.5-33.6 36 0 20.6 12.4 36 34.2 36 12.3 0 23.8-4.7 29-12.2v-25.6h-29.4v10.8h16v10.1c-3 3.2-8.3 5.2-15.5 5.2-12.7 0-20.3-9.6-20.3-24.3zm62 34.6h13.4v-25.2h5.6c8.6 0 13.1 3.8 17.7 13.6l5.5 11.6h16l-7.9-16c-3-6.2-8.2-12.5-15.2-13.9 10.5-1.5 17.2-8 17.2-18.6 0-15.1-11.7-20.6-26.4-20.6h-26V234zm13.4-57h9c9.1 0 16 1.6 16 10.2 0 7-5.6 10.1-15.8 10.1h-9.2v-20.2zm74.6-12.1L448.2 234H462l5-13.7h28.7l5 13.7h14L488 164.9h-12.5zm6 16.5l10 27.5h-20.2l10.2-27.5zM547 234v-57H569V165h-57.3V177h22V234H547zm45 0v-69.1h-13.5V234H592zm11-34.6c0 20.6 11.9 36 33 36 21 0 32.9-15.4 32.9-36 0-20.5-11.9-36-32.9-36-21.1 0-33 15.5-33 36zm14 0c0-14.6 7.3-24.2 19-24.2 11.6 0 18.8 9.6 18.8 24.2 0 14.7-7.2 24.3-18.8 24.3-12 0-19-9.6-19-24.3zm76 34.6v-47l31.9 47h13.6v-69.1h-13v47l-31.8-47H680V234h13z" fill="#fff"/></g><path d="M30.5 239c23 0 33.7-13.2 33.7-34.8 0-22.2-11.8-34.3-34.7-34.3H7V239h23.5zm-10-57h7.8c12.5 0 22.2 4 22.2 22.2 0 16.6-7.7 22.7-21.9 22.7h-8.2v-44.8zm60 .8c0 5.5-2.3 8-5.6 9.4l3.1 5.3c5.3-2.3 8.9-6.9 8.9-14.7v-13h-13v13h6.6zm32.2 56.2v-69.1H99.3V239h13.4zm27 0v-47l31.9 47h13.6v-69.1h-13v47l-31.8-47h-13.7V239h13zm90.4 0v-57H252V170h-57.2V182h21.9V239H230zm31.5 0v-69.1h49.8V182H275v15.5h31.5v12.2H275v17h37.2V239h-50.7zm17.9-77h10.8l11.8-18h-15.3l-7.3 18zm51.2 42.4c0-14.6 7.2-24.2 19.6-24.2 8.1 0 13.7 4.3 16 13l13.4-3.6c-3.4-14.4-13.7-21.2-29.3-21.2-21.8 0-33.6 15.5-33.6 36 0 20.6 12.4 36 34.2 36 12.2 0 23.8-4.7 28.9-12.2v-25.6h-29.3v10.8h16v10.1c-3 3.2-8.3 5.2-15.5 5.2-12.7 0-20.4-9.6-20.4-24.3zm62 34.6h13.4v-25.2h5.6c8.6 0 13.2 3.8 17.8 13.6l5.4 11.6h16l-7.8-16c-3-6.2-8.3-12.5-15.3-13.9 10.6-1.5 17.2-8 17.2-18.6 0-15.1-11.7-20.6-26.4-20.6h-25.9V239zm13.4-57h9c9.2 0 16 1.6 16 10.2 0 7-5.6 10.1-15.7 10.1H406v-20.2zm74.7-12.1L453.5 239h13.7l5.1-13.7H501L506 239h14l-26.8-69.1h-12.4zm6 16.5l10 27.5h-20.3l10.2-27.5zm65.5 52.6v-57h22V170H517V182h21.9V239h13.4zm45 0v-69.1h-13.4V239h13.4zm11.1-34.6c0 20.6 11.8 36 33 36 21 0 32.8-15.4 32.8-36 0-20.5-11.8-36-32.8-36-21.2 0-33 15.5-33 36zm14 0c0-14.6 7.3-24.2 19-24.2 11.6 0 18.8 9.6 18.8 24.2 0 14.7-7.2 24.3-18.8 24.3-12 0-19-9.6-19-24.3zm76 34.6v-47l31.8 47h13.6v-69.1h-13v47l-31.8-47h-13.6V239h13z" fill="#2E2E2E"/><mask id="b" maskUnits="userSpaceOnUse" x="517" y="215" width="62" height="38"><path fill="#C4C4C4" d="M517 215h62v38h-62z"/></mask><g mask="url(#b)"><path d="M148.4 324v-47l17.2 47h11.6l17.1-47v47H208v-69.1h-17.2l-19.2 52.6-19-52.6H135V324h13.4zm117.4-29.9c0 13.3-5 19.1-15 19.1-10.2 0-15.4-5.8-15.4-19v-39.3h-13.5V295c0 18.4 10 30.4 28.7 30.4 19 0 28.7-12 28.7-30.4V255h-13.5V294zm78 29.9v-12.2h-37v-57h-13.4V324h50.4zm31.3 0v-57H397V255h-57.3V267h22V324H375zm45 0v-69.1h-13.5V324H420zm27.4 0v-47l17.2 47h11.5l17.2-47v47h13.5v-69.1h-17.1l-19.2 52.6-19-52.6H434V324h13.4zm73.5 0v-69.1h49.7V267h-36.3v15.5H566v12.2h-31.5v17h37.3V324H521zm17.8-77h10.9l11.8-18H546l-7.3 18zm69.4 77c23 0 33.7-13.2 33.7-34.8 0-22.2-11.8-34.3-34.7-34.3h-22.5V324h23.5zm-10-57h7.8c12.5 0 22.2 4 22.2 22.2 0 16.6-7.7 22.7-21.9 22.7h-8.1v-44.8zm68.3 57v-69.1h-13.4V324h13.4zm35.3-69.1L674.5 324h13.7l5.1-13.7H722L727 324h14l-26.8-69.1h-12.4zm6 16.5l10 27.5h-20.3l10.2-27.5z" fill="#fff"/></g><path d="M150.4 329v-47l17.2 47h11.6l17.1-47v47H210v-69.1h-17.2l-19.2 52.6-19-52.6H137V329h13.4zm117.4-29.9c0 13.3-5 19.1-15 19.1-10.2 0-15.4-5.8-15.4-19v-39.3h-13.5V300c0 18.4 10 30.4 28.7 30.4 19 0 28.7-12 28.7-30.4V260h-13.5V299zm78 29.9v-12.2h-37v-57h-13.4V329h50.4zm31.3 0v-57H399V260h-57.3V272h22V329H377zm45 0v-69.1h-13.5V329H422zm27.4 0v-47l17.2 47h11.5l17.2-47v47h13.5v-69.1h-17.1l-19.2 52.6-19-52.6H436V329h13.4zm73.5 0v-69.1h49.7V272h-36.3v15.5H568v12.2h-31.5v17h37.3V329H523zm17.8-77h10.9l11.8-18H548l-7.3 18zm69.4 77c23 0 33.7-13.2 33.7-34.8 0-22.2-11.8-34.3-34.7-34.3h-22.5V329h23.5zm-10-57h7.8c12.5 0 22.2 4 22.2 22.2 0 16.6-7.7 22.7-21.9 22.7h-8.1v-44.8zm68.3 57v-69.1h-13.4V329h13.4zm35.3-69.1L676.5 329h13.7l5.1-13.7H724L729 329h14l-26.8-69.1h-12.4zm6 16.5l10 27.5h-20.3l10.2-27.5z" fill="#2E2E2E"/><g clip-path="url(#clip0)" fill="#231F20"><path d="M134 34.3l-2.6 4.4a56 56 0 0118.2 19.5h.8c-3.4-9.2-9-17.4-16.4-23.9zM136.3 30.2c8 7.5 13.3 17.3 15.2 28h.7c-.4-6-3-23-13-33l-2.8 5z"/><path d="M177.2 42.6c-8 3.6-15 9-20.6 15.6h.7L160 56c5.7-4 12.2-7 19-8.9l7.1 12.6h-29v-1.5h-8.5v1.5h-27.9l12-20.1-1.4-.8L118 61.3h30.7v-1.5h8.6v1.5H189l-8.3-14.5a45 45 0 0115.4-1l3.5-7.5a50.3 50.3 0 00-22.5 4.3z"/><path d="M173 33.3L153.6 0l-11.5 20.1c3 3.2 11 13.8 11.2 38.2h.9c.5-25-4.9-37-8-41.8l7.4-13.3 18 31.1a59 59 0 00-16.7 24h.8A65 65 0 01167.2 44a49.3 49.3 0 0136-13.1l3.9-8.5c-15.1-.4-26.2 4.5-34.2 10.8zM234.3 21.8a7.9 7.9 0 00-9.8 4.2c-.8 2 0 3.2 2 3.2 1.8 0 3.5-.5 5-1.4l-1.4 2.7c-1.5.6-3 1-4.7 1-3.4 0-4.9-2.3-3.5-5.5a11.8 11.8 0 0113.8-6.4l-1.4 2.2zM236.1 26.2a3 3 0 012.3-1.4c.8 0 1 .6.5 1.4H236zm2-3.8h1.3l4.3-3H241l-2.8 3zm2.4 5.2c1.6-2.5 1.1-4.4-1.4-4.4a7.4 7.4 0 00-6.2 4.4c-1 2.3 0 3.8 2.3 3.8 1 0 2-.3 3-.6l1.3-2c-1 .4-2.1.7-3.3.8-1.1 0-1.6-.7-1-2h5.3zM247.4 26a2.4 2.4 0 01-2 1.7c-.7 0-1-.3-.7-1 .5-1.2 1.2-1.8 2-1.8 1 0 1 .4.7 1.1zm4.6-2.7h-4.5a5.5 5.5 0 00-4.8 3 1.7 1.7 0 00.4 2.3c-.4 0-.8.2-1.2.4-.4.2-.8.6-1 1a1.1 1.1 0 00.4 1.5 3.8 3.8 0 00-2.7 1.8c-.4 1 0 2 3 2s4.6-1.3 5.2-2.5c1.3-3-4-2.2-3.5-3.1.1-.3.4-.4 1.6-.4a5 5 0 004.6-3l.2-1.2h1.3l1-1.8zm-9.3 8.7c1.3.3 2 .4 1.7 1-.2.6-.8.8-2.1.8-1.4 0-1.7-.3-1.5-.9.3-.5.7-.7 2-.9zM253.7 26.2a3 3 0 012.2-1.4c.8 0 1 .6.6 1.4h-2.8zm4.4 1.4c1.6-2.5 1-4.4-1.4-4.4a7.4 7.4 0 00-6.3 4.3c-1 2.4 0 3.9 2.4 3.9 1 0 2-.3 3-.6l1.3-2c-1.1.4-2.2.7-3.3.8-1.2 0-1.7-.7-1-2h5.3zM264.3 25c2-.4 2.7.3 2 1.7a4.4 4.4 0 01-3.8 2.8c-.2 0-.4 0-.6-.2l2.4-4.3zm1.9-3.3h-2.4l-1.7 3c-1.3.7-2.5 1.8-3.4 3.1v.2c.4 0 .8-.8 2.6-1.7l-5.1 9h2.3l2.3-4 1 .1a8.3 8.3 0 007-4.7c1-2 .1-3.5-2-3.5h-.7l-.8.1.9-1.6zM218.7 44.7l-.7.1c-1.2 0-1.8-.7-1.2-1.8a4.1 4.1 0 014.3-2.3l-2.4 4zm8.1-10h-2.4l-2.2 3.9h-1a7.7 7.7 0 00-6.9 4.3c-1 2.4.2 3.9 3 3.9 1 0 1.9-.1 2.8-.3l6.7-11.9zM227 41.6a3 3 0 012.3-1.5c.8 0 1 .6.5 1.5H227zm4.4 1.4c1.6-2.6 1.1-4.5-1.4-4.5a7.4 7.4 0 00-6.2 4.4c-1 2.3 0 3.8 2.4 3.8 1 0 2-.2 3-.6l1.2-2c-1 .5-2.1.8-3.2.9-1.2 0-1.7-.8-1-2.1h5.2zM218 52.9c-.7-.7-1.6-1-2.5-1a2.6 2.6 0 00-2.3 1.2c-.7 1.7 3.6 2 2.2 5.3a6.2 6.2 0 01-5.6 3.7 5 5 0 01-3.6-1.2l1.2-2c.8.7 1.8 1.2 3 1.2a2.4 2.4 0 002.2-1.3c.8-2-3.5-2.2-2.1-5.3a6.4 6.4 0 015.7-3.6c1.1 0 2.2.3 3 1l-1.2 2zM221.7 59.7c-.6.4-1.3.6-2 .7-.7 0-.9-.6-.5-1.6A4.6 4.6 0 01224 56l-2.2 3.8zm5.5-5.6c-.8-.2-1.7-.3-2.5-.2a8.2 8.2 0 00-7.9 4.8c-.8 2-.3 3.4 1.3 3.4 1 0 1.9-.3 2.7-.9l-.4.8h2.3l4.5-7.9zM227.3 62H225l4.5-8h2.3l-4.5 8zm5.8-10.2a2 2 0 01-1.8 1.3c-.7 0-1-.6-.7-1.3a2 2 0 011.8-1.3c.7 0 1 .6.7 1.3zM235.9 54.9c1-.6 2-1 3.2-1 1.8 0 1.6 1.5.7 3.1l-2.8 5h-2.3l2.6-4.8c.5-.8.7-1.6 0-1.6a5 5 0 00-2.5 1.3l-3 5h-2.3l4.5-8h2.4l-.5 1zM246.6 54h1.8l-1 1.8h-1.8l-1.5 2.5c-.6 1-.8 1.7 0 1.7.5 0 1-.2 1.5-.5l-.8 2.1c-.8.3-1.5.5-2.3.5-2 0-2-1.6-1-3.3l1.8-3h-1.7l1-1.8h1.7l1-1.7h2.4l-1 1.7zM250.4 57a3 3 0 012.3-1.5c.8 0 1 .6.5 1.5h-2.8zm4.5 1.3c1.6-2.5 1-4.4-1.4-4.4a7.4 7.4 0 00-6.2 4.3c-1 2.4-.1 4 2.3 4l3-.6 1.3-2c-1 .4-2.2.7-3.3.8-1.2 0-1.6-.8-1-2h5.3zM260.8 59.2h-5.5l1.4-2.4h5.5l-1.4 2.4zM273.4 52H269l-1.6 2.8h3.8l-1.2 2h-3.7l-3 5.1h-2.5l6.8-12h7l-1.2 2.1zM277 57.5c-.4 1.2-1.8 2.7-3.1 2.7-.7 0-1.4-.6-.8-1.8.3-.8 1.6-2.6 3.1-2.6 1 0 1.3.7.9 1.7zm2.5 0c1-2.2 0-3.7-2.4-3.7a7.7 7.7 0 00-6.5 4.4c-.9 2.2.2 3.8 2.4 3.8a7.6 7.6 0 006.5-4.4zM279.1 66h-2.5l4.4-4.8.5-7.2h2.4l-.4 4.7 4-4.7h2.5l-10.9 12z"/></g><defs><clipPath id="clip0"><path fill="#fff" d="M118 0h172v66H118z"/></clipPath></defs></svg>