<svg width="26" height="25" fill="none" xmlns="http://www.w3.org/2000/svg"><g clip-path="url(#clip0)"><path d="M9.4 22.7c-2.7 0-5.5-.7-8-2.1a1 1 0 01-.4-1.2 1 1 0 01.9-.7c1.7.1 3.5-.3 5-1a9.8 9.8 0 01-5-8.2C2 6.5 3 4 3 3.9c.1-.3.4-.6.8-.6s.7.1 1 .4C6.5 6.2 9.2 7.7 12 8c0-1.6.8-3.1 2-4.3a5.8 5.8 0 017.5 0c.8-.3 1.6-.7 2.3-1.2.4-.2.9-.2 1.2 0 .3.2.5.7.4 1.1-.3 1.5-1 2.8-2 4v.4c0 5.7-2.5 10.4-7 12.9-2.1 1.3-4.6 2-7.1 2zM6 20.3c3.4.8 6.8.4 9.6-1.3 3.7-2.1 5.9-6.2 5.9-11l-.1-.7c-.1-.3 0-.7.3-.9l.6-.7-.7.2c-.4 0-.8 0-1-.3a3.6 3.6 0 00-5-.3c-1 .6-1.4 1.6-1.4 2.6v1c0 .6-.4 1-1 1-3.4.2-6.6-1.1-8.9-3.5-.6 2.7-.8 7.7 5.2 10.3.3.2.6.5.6.9s-.1.7-.4 1A12 12 0 016 20.2z" fill="#231F20"/></g><defs><clipPath id="clip0"><path d="M.9.2h24.6V25H.9V.2z" fill="#fff"/></clipPath></defs></svg>