<svg width="158" height="61" fill="none" xmlns="http://www.w3.org/2000/svg"><g clip-path="url(#clip0)" fill="#fff"><path d="M14.7 31.7l-2.4 4c7 4.6 12.7 10.8 16.8 18.1h.7c-3.2-8.5-8.4-16-15.1-22zM16.9 28a47 47 0 0114 25.8h.6c-.4-5.6-2.8-21.3-12-30.5L17 27.9z"/><path d="M54.4 39.4a53.2 53.2 0 00-19 14.4h.7l2.6-2A55.4 55.4 0 0156 43.5l6.6 11.7H36v-1.4h-8v1.4H2.7l11-18.6-1.3-.8L0 56.6h28.2v-1.3H36v1.3h29.2l-7.6-13.3a41 41 0 0114.2-1l3.1-6.9a46 46 0 00-20.6 4z"/><path d="M50.5 30.8L32.8 0 22.2 18.6c2.8 3 10.1 12.7 10.3 35.2h.8c.5-23-4.5-34.1-7.4-38.6L33 3l16.4 28.7A54.5 54.5 0 0034 53.8h.7a60 60 0 0110.5-13 45.2 45.2 0 0133-12.2l3.6-7.8c-13.8-.4-24 4.1-31.3 10zM106.9 20.1a7.2 7.2 0 00-9 4c-.8 1.7 0 3 1.8 3 1.6-.2 3.2-.6 4.6-1.4l-1.4 2.5a12 12 0 01-4.2.9c-3.2 0-4.5-2-3.2-5a10.9 10.9 0 019.8-6.4c1 0 1.9.1 2.8.4l-1.2 2zM108.5 24.3a2.7 2.7 0 012-1.4c.8 0 1 .6.5 1.4h-2.5zm1.8-3.6h1.2l4-2.8H113l-2.6 2.8zm2.2 4.8c1.5-2.3 1-4-1.3-4a6.8 6.8 0 00-5.6 4c-1 2.1-.1 3.5 2.1 3.5 1 0 1.9-.2 2.8-.5l1.1-1.9c-1 .4-2 .7-3 .8-1 0-1.5-.7-.9-2l4.8.1zM118.9 24a2.2 2.2 0 01-2 1.6c-.5 0-.8-.3-.5-1 .4-1 1.1-1.6 1.9-1.6.8 0 .8.4.6 1zm4.2-2.5H119a5 5 0 00-4.5 2.8 1.6 1.6 0 00.4 2.1l-1 .4c-.5.2-.8.6-1 1a1 1 0 00.4 1.4 3.5 3.5 0 00-2.5 1.6c-.4.8 0 1.8 2.7 1.8 2.8 0 4.3-1.2 4.8-2.3 1.2-2.8-3.6-2-3.2-2.9.1-.3.4-.3 1.5-.3a4.6 4.6 0 004.2-2.7l.2-1.2h1.2l.9-1.7zm-8.5 8c1.1.4 1.8.5 1.5 1-.2.6-.7.7-2 .7-1.2 0-1.5-.2-1.3-.8.3-.5.7-.7 1.8-.8zM124.6 24.3a2.8 2.8 0 012.1-1.4c.7 0 1 .6.5 1.4h-2.6zm4 1.2c1.6-2.3 1-4.1-1.2-4.1a6.8 6.8 0 00-5.7 4c-1 2.2-.1 3.6 2.1 3.6 1 0 1.9-.2 2.8-.6l1.1-1.8c-1 .4-2 .7-3 .8-1 0-1.5-.7-.9-2l4.9.1zM134.4 23.1c1.8-.3 2.4.3 1.9 1.6a4 4 0 01-3.5 2.6 1 1 0 01-.6-.2l2.2-4zm1.7-3H134l-1.5 2.7a9.7 9.7 0 00-3.2 2.9v.1c.5 0 .8-.6 2.4-1.5l-4.7 8.3h2.2l2.1-3.7 1 .1a7.6 7.6 0 006.4-4.3c.8-2 0-3.2-1.9-3.2h-1.4l.8-1.4zM92.5 41.4H92c-1.2 0-1.7-.6-1.2-1.7a3.8 3.8 0 014-2.1l-2.2 3.8zM100 32h-2.2l-2 3.7-1-.1a7 7 0 00-6.3 4c-1 2.3.1 3.6 2.7 3.6.9 0 1.8 0 2.6-.2l6.2-11zM100.1 38.4a2.8 2.8 0 012.1-1.3c.8 0 1 .5.5 1.3H100zm4 1.3c1.6-2.3 1-4.1-1.2-4.1a6.8 6.8 0 00-5.7 4c-1 2.2 0 3.6 2.1 3.6 1 0 2-.2 2.8-.6l1.2-1.8c-1 .4-2 .7-3 .7s-1.5-.6-1-1.9l4.9.1zM91.9 48.9c-.7-.6-1.5-1-2.4-1a2.3 2.3 0 00-2 1.2c-.7 1.6 3.3 1.8 2 4.9a5.7 5.7 0 01-5.2 3.4c-1.2 0-2.4-.3-3.3-1l1.2-2a4 4 0 002.6 1.2 2.2 2.2 0 002.1-1.2c.8-1.8-3.2-2-2-5a6 6 0 015.3-3.3c1 0 2 .3 2.8.9L92 48.9zM95.3 55.1c-.6.4-1.2.6-1.9.7-.6 0-.8-.5-.4-1.4a4.2 4.2 0 014.2-2.7l-2 3.4zm5-5c-.7-.2-1.5-.3-2.3-.3a7.5 7.5 0 00-7.2 4.5c-.8 1.8-.3 3.1 1.2 3.1.8 0 1.7-.3 2.4-.8l-.4.7h2.2l4.1-7.3zM100.4 57.3h-2.1l4.1-7.4h2.2l-4.2 7.4zm5.3-9.4a2 2 0 01-1.6 1.2c-.6 0-1-.6-.6-1.2a2 2 0 011.6-1.2c.6 0 .9.5.6 1.2zM108.3 50.7c.9-.5 1.9-.9 2.9-1 1.7 0 1.5 1.5.7 3l-2.6 4.6h-2.1l2.4-4.4c.4-.8.6-1.5 0-1.5-.8.1-1.7.5-2.3 1.2l-2.7 4.7h-2.2l4.2-7.4h2.2l-.5.8zM118.1 50h1.7l-1 1.5h-1.6l-1.4 2.4c-.5.8-.7 1.6 0 1.6.5-.1 1-.2 1.5-.5l-.9 2c-.6.2-1.3.4-2 .4-1.8 0-1.9-1.5-1-3l1.7-2.9h-1.6l1-1.6h1.5l1-1.6h2.1l-1 1.6zM121.7 52.6a2.8 2.8 0 012-1.3c.8 0 1 .5.5 1.3h-2.5zm4 1.3c1.5-2.3 1-4.1-1.3-4.1a6.8 6.8 0 00-5.7 4c-.9 2.2 0 3.6 2.2 3.6 1 0 1.9-.2 2.8-.5l1.1-1.8c-1 .4-2 .6-3 .7-1 0-1.5-.7-.9-1.9h4.8zM131.2 54.7h-5l1.2-2.2h5l-1.2 2.2zM142.7 48h-4l-1.4 2.7h3.4l-1 1.8h-3.5l-2.7 4.7h-2.3l6.2-11h6.4l-1 1.9zM146.1 53.2c-.4 1-1.7 2.4-3 2.4-.6 0-1.1-.5-.7-1.6.3-.8 1.5-2.4 3-2.4.8 0 1.1.6.7 1.6zm2.2 0c1-2.1 0-3.5-2.1-3.5a7 7 0 00-6 4.1c-.8 2 .1 3.5 2.2 3.5a7 7 0 006-4v-.1zM148 61h-2.4l4.1-4.4.5-6.7h2.2l-.4 4.3 3.8-4.3h2.2L148 61z"/></g><defs><clipPath id="clip0"><path fill="#fff" d="M0 0h158v61H0z"/></clipPath></defs></svg>