<svg width="318" height="151" fill="none" xmlns="http://www.w3.org/2000/svg"><defs/><mask id="a" mask-type="alpha" maskUnits="userSpaceOnUse" x="0" y="0" width="318" height="151"><path d="M0 0h317.5v151H0V0z" fill="#C4C4C4"/></mask><g mask="url(#a)"><path d="M-.3-17.3l77.7 42.6v32.5L-.3 11v-28.3zM-1.6 71.2l79 43V147l-79-47.2V71.2z" fill="#fff"/><path d="M-1.5 99.9l78.7-41.7.5-32.6-78.8 45.8-.4 28.5z" fill="#D6D6D6" fill-opacity=".7"/><path d="M128 122V65.5h21.9V51.3H90.2v14.3h22v56.3h15.7zM175.6 122V51.2h-15.8V122h15.8zM205.2 122V78.4l16.2 43.4h13.3l16.2-43.4v43.4h15.8V51.3h-19.8L228.1 103l-19-51.7h-19.7V122h15.8zM288.8 117h-8v-3.2h-1.7v8.1h1.7v-3h8v-2zM288.8 105h-1.7v5.2h-2.4v-4.5H283v4.5h-2.2V105h-1.7v7h9.7v-7zM284 101.9c-2.1 0-3.5-1-3.5-2.6 0-1.3.7-2.1 2-2.4l-.6-1.9c-1.9.5-3 2-3 4.3 0 3 2.2 4.6 5 4.6 3 0 5.1-1.7 5.1-4.7 0-2.3-1.1-3.6-3-4.2l-.5 1.9c1.2.3 1.9 1.1 1.9 2.3 0 1.7-1.4 2.7-3.4 2.7zM288.8 91.1h-4v-4.3h4v-2h-9.7v2h4V91h-4v2h9.7v-2zM288.8 80.6h-6.6l6.6-4.5v-1.9h-9.7v1.9h6.6l-6.6 4.4v2h9.7v-1.9zM288.8 70h-9.7v1.8h9.7V70zM284 68c2.9 0 5-1.7 5-4.7 0-.9-.1-1.6-.4-2.2l1-1-1-1.2-1 1c-1-.9-2.2-1.3-3.6-1.3-3 0-5.1 1.7-5.1 4.7s2.2 4.6 5 4.6zm2.1-4.7l1.1-1 .2 1c0 1.7-1.4 2.7-3.4 2.7-2.1 0-3.5-1-3.5-2.7 0-1.7 1.4-2.7 3.5-2.7.8 0 1.6.2 2.1.5l-1 1 1 1.2zM284.6 50.4c1.9 0 2.7.7 2.7 2.2 0 1.4-.8 2.1-2.7 2.1h-5.5v2h5.7c2.6 0 4.2-1.5 4.2-4.1 0-2.7-1.6-4-4.2-4H279v1.8h5.5zM288.8 39h-1.7v5.2h-2.4v-4.4H283v4.4h-2.2v-5.1h-1.7v7h9.7V39zM285.7 37.5c2.1-.2 3.3-1.5 3.3-4 0-1.9-.9-3.8-3-3.8-1.5 0-2.3 1-2.7 2.5l-.8 2.5c-.2.4-.4.6-.9.6-.7 0-1-.7-1-1.6 0-1.2.5-1.7 1.4-1.8l-.1-1.8c-2 0-3 1.4-3 3.7 0 1.7 1 3.4 3 3.4.8 0 1.8-.3 2.4-2l.6-2.4c.3-.8.7-1 1.2-1 .9 0 1.3.7 1.3 1.7 0 1.2-.5 2-1.8 2.1l.1 1.9zM302.4 118c0-3.3-1.9-4.8-5-4.8-3 0-4.8 1.7-4.8 5v3.1h9.8V118zm-8 1.4v-1.1c0-1.8.5-3.1 3-3.1 2.4 0 3.3 1 3.3 3v1.2h-6.3zM294.5 110.5c.7 0 1 .3 1.3.8l.7-.4c-.3-.8-1-1.3-2-1.3h-1.9v1.8h1.9v-.9zM302.4 105.6h-9.8v1.9h9.8v-2zM302.4 101.3h-6.6l6.6-4.5v-2h-9.8v2h6.7l-6.7 4.4v2h9.8v-1.9zM302.4 88.1h-8v-3h-1.8v8h1.8v-3h8v-2zM302.4 83.3h-9.8v-7h1.8v5h2.1V77h1.8v4.5h2.4V76h1.7v7.2zm-10.9-2.6v-1.5l-2.5-1.7v2.2l2.5 1zM297.5 73c-2 0-3.4-1-3.4-2.7 0-1.1.6-2 1.8-2.3l-.5-1.8c-2 .4-3 1.9-3 4.1 0 3 2.2 4.8 5.1 4.8 3 0 5-1.8 5-4.9 0-1.7-.6-3.4-1.6-4h-3.6v4h1.5V68h1.4c.4.4.7 1.2.7 2.2 0 1.8-1.3 2.9-3.4 2.9zM302.4 64v-2h-3.6v-.8c0-1.2.6-1.8 2-2.5l1.6-.8v-2.2l-2.3 1c-.8.5-1.7 1.2-2 2.2-.1-1.5-1-2.4-2.6-2.4-2 0-2.9 1.7-2.9 3.7V64h9.8zm-8-2v-1.3c0-1.3.2-2.2 1.4-2.2 1 0 1.4.8 1.4 2.2V62h-2.8zM292.6 51l9.8 3.9v-2l-2-.7v-4l2-.7v-2l-9.8 3.8V51zm2.4-.8l3.8-1.4v2.8l-3.8-1.4zM302.4 40.5h-8v-3h-1.8v8h1.8v-3h8v-2zM302.4 33.7h-9.8v2h9.8v-2zM297.5 31.8c3 0 5-1.7 5-4.7s-2-4.6-5-4.6c-2.9 0-5 1.6-5 4.6 0 3 2.1 4.7 5 4.7zm0-2c-2 0-3.4-1-3.4-2.7 0-1.6 1.3-2.7 3.4-2.7 2 0 3.4 1 3.4 2.7 0 1.7-1.3 2.7-3.4 2.7zM302.4 18.6h-6.6l6.6-4.5v-2h-9.8v2h6.7l-6.7 4.4v2h9.8v-1.9zM316 119.4h-6.7l6.6-2.4v-1.6l-6.6-2.5h6.6V111h-9.7v2.4l7.4 2.8-7.4 2.6v2.5h9.7v-1.9zM311.7 102.4c1.9 0 2.7.7 2.7 2.1 0 1.5-.8 2.2-2.7 2.2h-5.5v2h5.6c2.6 0 4.3-1.5 4.3-4.1 0-2.7-1.7-4.1-4.3-4.1h-5.6v2h5.5zM316 91h-1.8v5.2h-8v1.9h9.7V91zM316 86.1h-8.1v-3h-1.7v8h1.7v-3h8v-2zM316 79.4h-9.8v1.9h9.7v-2zM316 75h-6.7l6.6-2.4V71l-6.6-2.4h6.6v-2h-9.7v2.5l7.4 2.7-7.4 2.7V77h9.7v-2zM316 64.3h-9.8v-7h1.7v5h2.2V58h1.7v4.5h2.4V57h1.7v7.2zm-11-2.6v-1.5l-2.5-1.7v2.2l2.5 1zM316 51.5c0-3.2-2-4.7-5-4.7-3.1 0-4.8 1.6-4.8 4.9v3.1h9.7v-3.3zm-8.1 1.4v-1c0-1.8.5-3.2 3.1-3.2 2.3 0 3.2 1 3.2 3V53H308zM316 42.9h-9.8v1.9h9.7v-2zM306.2 37.5l9.7 3.8v-2l-2-.6v-4l2-.8v-2l-9.7 3.8v1.8zm2.3-.9l3.9-1.4v2.9l-3.9-1.5z" fill="#fff"/></g></svg>