<svg width="146" height="80" fill="none" xmlns="http://www.w3.org/2000/svg"><mask id="a" maskUnits="userSpaceOnUse" x="0" y="0" width="146" height="80"><path d="M0 0h146v80H0V0z" fill="#C4C4C4"/></mask><g mask="url(#a)"><path d="M1.4 53l41.8-22 .2-17.4L1.6 38 1.4 53z" fill="#000" fill-opacity=".6"/><path d="M1.3 38l42 22.8V78l-42-24.9v-15zM2-9.2l41.3 22.7v17.3L2 6V-9z" fill="#2E2E2E"/><path d="M70.1 65V34.7h11.7V27H50v7.7h11.6v30.1h8.4zM95.4 65V27H87V65h8.4zM111.2 65V41.6l8.6 23.2h7l8.6-23.2v23.2h8.4V27.1h-10.5l-10 27.7-10-27.7h-10.5V65h8.4z" fill="#000"/></g></svg>