<svg width="2050" height="2168" viewBox="0 0 2050 2168" fill="none" xmlns="http://www.w3.org/2000/svg">
<mask id="mask0" mask-type="alpha" maskUnits="userSpaceOnUse" x="0" y="411" width="854" height="705">
<path fill-rule="evenodd" clip-rule="evenodd" d="M458.631 453.714C534.635 459.875 613.401 424.053 681.759 457.813C755.721 494.341 811.874 563.297 838.486 641.315C865.316 719.973 853.659 805.463 827.217 884.253C800.975 962.445 760.871 1040.38 690.232 1083.06C622.156 1124.19 537.115 1119.95 458.631 1106.94C389.882 1095.55 335.999 1051.37 276.854 1014.55C212.069 974.226 140.286 944.87 97.1778 881.937C43.0317 802.891 -17.5093 710.449 4.72152 617.278C27.1838 523.136 116.416 452.211 207.546 419.373C289.003 390.021 372.32 446.718 458.631 453.714Z" fill="#FFC368"/>
</mask>
<g mask="url(#mask0)">
<line y1="-0.5" x2="1434.78" y2="-0.5" transform="matrix(0.695799 -0.718236 0.922363 0.386324 -609.322 1097.53)" stroke="black" stroke-opacity="0.5"/>
<line y1="-0.5" x2="1434.78" y2="-0.5" transform="matrix(0.695799 -0.718236 0.922363 0.386324 -424.915 1107.46)" stroke="black" stroke-opacity="0.5"/>
<line y1="-0.5" x2="1434.78" y2="-0.5" transform="matrix(0.695799 -0.718236 0.922363 0.386324 -260.02 1150.89)" stroke="black" stroke-opacity="0.5"/>
<line y1="-0.5" x2="1434.78" y2="-0.5" transform="matrix(0.695799 -0.718236 0.922363 0.386324 -75.6133 1160.82)" stroke="black" stroke-opacity="0.5"/>
<line y1="-0.5" x2="1434.78" y2="-0.5" transform="matrix(0.695799 -0.718236 0.922363 0.386324 106.828 1208.39)" stroke="black" stroke-opacity="0.5"/>
<line y1="-0.5" x2="1434.78" y2="-0.5" transform="matrix(0.695799 -0.718236 0.922363 0.386324 291.235 1218.32)" stroke="black" stroke-opacity="0.5"/>
<line y1="-0.5" x2="1434.78" y2="-0.5" transform="matrix(0.695799 -0.718236 0.922363 0.386324 456.13 1261.75)" stroke="black" stroke-opacity="0.5"/>
<line y1="-0.5" x2="1434.78" y2="-0.5" transform="matrix(0.695799 -0.718236 0.922363 0.386324 640.536 1271.68)" stroke="black" stroke-opacity="0.5"/>
<line y1="-0.5" x2="1434.78" y2="-0.5" transform="matrix(0.695799 -0.718236 0.922363 0.386324 -518.626 1097.53)" stroke="black" stroke-opacity="0.5"/>
<line y1="-0.5" x2="1434.78" y2="-0.5" transform="matrix(0.695799 -0.718236 0.922363 0.386324 -334.219 1107.46)" stroke="black" stroke-opacity="0.5"/>
<line y1="-0.5" x2="1434.78" y2="-0.5" transform="matrix(0.695799 -0.718236 0.922363 0.386324 -169.323 1150.89)" stroke="black" stroke-opacity="0.5"/>
<line y1="-0.5" x2="1434.78" y2="-0.5" transform="matrix(0.695799 -0.718236 0.922363 0.386324 15.0828 1160.82)" stroke="black" stroke-opacity="0.5"/>
<line y1="-0.5" x2="1434.78" y2="-0.5" transform="matrix(0.695799 -0.718236 0.922363 0.386324 197.524 1208.39)" stroke="black" stroke-opacity="0.5"/>
<line y1="-0.5" x2="1434.78" y2="-0.5" transform="matrix(0.695799 -0.718236 0.922363 0.386324 381.93 1218.32)" stroke="black" stroke-opacity="0.5"/>
<line y1="-0.5" x2="1434.78" y2="-0.5" transform="matrix(0.695799 -0.718236 0.922363 0.386324 546.826 1261.75)" stroke="black" stroke-opacity="0.5"/>
<line y1="-0.5" x2="1434.78" y2="-0.5" transform="matrix(0.695799 -0.718236 0.922363 0.386324 731.233 1271.68)" stroke="black" stroke-opacity="0.5"/>
</g>
<circle cx="703.598" cy="863.189" r="7.18763" transform="rotate(42.7584 703.598 863.189)" fill="#1E1E1E" fill-opacity="0.9"/>
<circle cx="756.023" cy="964.943" r="7.18763" transform="rotate(42.7584 756.023 964.943)" fill="#1E1E1E" fill-opacity="0.9"/>
<circle cx="648.245" cy="951.861" r="7.18763" transform="rotate(42.7584 648.245 951.861)" fill="#1E1E1E" fill-opacity="0.9"/>
<circle cx="713.064" cy="1105.03" r="7.18763" transform="rotate(42.7584 713.064 1105.03)" fill="#1E1E1E" fill-opacity="0.9"/>
<circle cx="569.656" cy="1065.66" r="7.18763" transform="rotate(42.7584 569.656 1065.66)" fill="#1E1E1E" fill-opacity="0.9"/>
<circle cx="810.514" cy="1075.27" r="7.18763" transform="rotate(42.7584 810.514 1075.27)" fill="#1E1E1E" fill-opacity="0.9"/>
<circle cx="880.227" cy="999.873" r="7.18763" transform="rotate(42.7584 880.227 999.873)" fill="#1E1E1E" fill-opacity="0.9"/>
<circle cx="927.563" cy="1236.77" r="7.18763" transform="rotate(42.7584 927.563 1236.77)" fill="#1E1E1E" fill-opacity="0.9"/>
<circle cx="908.161" cy="1138.92" r="7.18763" transform="rotate(42.7584 908.161 1138.92)" fill="#1E1E1E" fill-opacity="0.9"/>
<circle cx="585.86" cy="1347.03" r="7.18763" transform="rotate(42.7584 585.86 1347.03)" fill="#1E1E1E" fill-opacity="0.9"/>
<circle cx="757.178" cy="1392.23" r="7.18763" transform="rotate(42.7584 757.178 1392.23)" fill="#1E1E1E" fill-opacity="0.9"/>
<circle cx="602.433" cy="1195.87" r="7.18763" transform="rotate(42.7584 602.433 1195.87)" fill="#1E1E1E" fill-opacity="0.9"/>
<circle cx="747.366" cy="1229.99" r="7.18763" transform="rotate(42.7584 747.366 1229.99)" fill="#1E1E1E" fill-opacity="0.9"/>
<circle cx="677.384" cy="1298.47" r="7.18763" transform="rotate(42.7584 677.384 1298.47)" fill="#1E1E1E" fill-opacity="0.9"/>
<circle cx="841.768" cy="1210.72" r="7.18763" transform="rotate(42.7584 841.768 1210.72)" fill="#1E1E1E" fill-opacity="0.9"/>
<circle cx="898.152" cy="1369.41" r="7.18763" transform="rotate(42.7584 898.152 1369.41)" fill="#1E1E1E" fill-opacity="0.9"/>
<circle cx="328.476" cy="1268.87" r="7.18763" transform="rotate(42.7584 328.476 1268.87)" fill="#1E1E1E" fill-opacity="0.9"/>
<circle cx="402.836" cy="1091.22" r="7.18763" transform="rotate(42.7584 402.836 1091.22)" fill="#1E1E1E" fill-opacity="0.9"/>
<circle cx="534.467" cy="1006.49" r="7.18763" transform="rotate(42.7584 534.467 1006.49)" fill="#1E1E1E" fill-opacity="0.9"/>
<circle cx="501.246" cy="909.172" r="7.18763" transform="rotate(42.7584 501.246 909.172)" fill="#1E1E1E" fill-opacity="0.9"/>
<circle cx="526.966" cy="1212.66" r="7.18763" transform="rotate(42.7584 526.966 1212.66)" fill="#1E1E1E" fill-opacity="0.9"/>
<circle cx="410.975" cy="1431.73" r="7.18763" transform="rotate(42.7584 410.975 1431.73)" fill="#1E1E1E" fill-opacity="0.9"/>
<circle cx="421.819" cy="1355.19" r="7.18763" transform="rotate(42.7584 421.819 1355.19)" fill="#1E1E1E" fill-opacity="0.9"/>
<circle cx="608.949" cy="1494.92" r="7.18763" transform="rotate(42.7584 608.949 1494.92)" fill="#1E1E1E" fill-opacity="0.9"/>
<circle cx="730.547" cy="1507.46" r="7.18763" transform="rotate(42.7584 730.547 1507.46)" fill="#1E1E1E" fill-opacity="0.9"/>
<circle cx="437.95" cy="1236.91" r="7.18763" transform="rotate(42.7584 437.95 1236.91)" fill="#1E1E1E" fill-opacity="0.9"/>
<path d="M734.501 964L281.001 1208.5L918 1760L2050 1760L734.501 964Z" fill="#FEC064" fill-opacity="0.65"/>
<path d="M761.503 0H1454L734.503 964L281.003 1208.5L761.503 0Z" fill="#FEB13D" fill-opacity="0.8"/>
</svg>
