<svg width="375" height="538" viewBox="0 0 375 538" fill="none" xmlns="http://www.w3.org/2000/svg">
<mask id="mask0" mask-type="alpha" maskUnits="userSpaceOnUse" x="-113" y="190" width="318" height="285">
<path fill-rule="evenodd" clip-rule="evenodd" d="M10.7852 423.89C-11.8544 415.813 -38.7599 420.294 -56.8193 404.437C-76.3594 387.281 -87.8313 361.704 -89.569 335.777C-91.321 309.638 -80.7968 284.559 -66.3173 262.726C-51.9477 241.059 -33.378 220.599 -8.38748 213.368C15.6961 206.399 41.2432 214.629 64.0793 224.993C84.0826 234.071 96.8849 251.918 111.89 267.953C128.326 285.518 147.787 300.313 155.779 322.992C165.816 351.478 176.708 384.564 162.338 411.12C147.817 437.952 114.861 452.267 84.4346 454.831C57.2373 457.122 36.4947 433.062 10.7852 423.89Z" fill="#FFC368"/>
</mask>
<g mask="url(#mask0)">
<line y1="-0.5" x2="452.279" y2="-0.5" transform="matrix(-0.857984 0.513677 -0.790947 -0.611885 388.485 314.988)" stroke="black" stroke-opacity="0.5"/>
<line y1="-0.5" x2="452.279" y2="-0.5" transform="matrix(-0.857984 0.513677 -0.790947 -0.611885 333.147 296.919)" stroke="black" stroke-opacity="0.5"/>
<line y1="-0.5" x2="452.279" y2="-0.5" transform="matrix(-0.857984 0.513677 -0.790947 -0.611885 286.481 270.243)" stroke="black" stroke-opacity="0.5"/>
<line y1="-0.5" x2="452.279" y2="-0.5" transform="matrix(-0.857984 0.513677 -0.790947 -0.611885 231.143 252.174)" stroke="black" stroke-opacity="0.5"/>
<line y1="-0.5" x2="452.279" y2="-0.5" transform="matrix(-0.857984 0.513677 -0.790947 -0.611885 179.474 222.805)" stroke="black" stroke-opacity="0.5"/>
<line y1="-0.5" x2="452.279" y2="-0.5" transform="matrix(-0.857984 0.513677 -0.790947 -0.611885 124.136 204.736)" stroke="black" stroke-opacity="0.5"/>
<line y1="-0.5" x2="452.279" y2="-0.5" transform="matrix(-0.857984 0.513677 -0.790947 -0.611885 77.4702 178.061)" stroke="black" stroke-opacity="0.5"/>
<line y1="-0.5" x2="452.279" y2="-0.5" transform="matrix(-0.857984 0.513677 -0.790947 -0.611885 22.1323 159.991)" stroke="black" stroke-opacity="0.5"/>
<line y1="-0.5" x2="452.279" y2="-0.5" transform="matrix(-0.857984 0.513677 -0.790947 -0.611885 360.87 307.589)" stroke="black" stroke-opacity="0.5"/>
<line y1="-0.5" x2="452.279" y2="-0.5" transform="matrix(-0.857984 0.513677 -0.790947 -0.611885 305.531 289.519)" stroke="black" stroke-opacity="0.5"/>
<line y1="-0.5" x2="452.279" y2="-0.5" transform="matrix(-0.857984 0.513677 -0.790947 -0.611885 258.867 262.844)" stroke="black" stroke-opacity="0.5"/>
<line y1="-0.5" x2="452.279" y2="-0.5" transform="matrix(-0.857984 0.513677 -0.790947 -0.611885 203.528 244.774)" stroke="black" stroke-opacity="0.5"/>
<line y1="-0.5" x2="452.279" y2="-0.5" transform="matrix(-0.857984 0.513677 -0.790947 -0.611885 151.858 215.406)" stroke="black" stroke-opacity="0.5"/>
<line y1="-0.5" x2="452.279" y2="-0.5" transform="matrix(-0.857984 0.513677 -0.790947 -0.611885 96.5205 197.337)" stroke="black" stroke-opacity="0.5"/>
<line y1="-0.5" x2="452.279" y2="-0.5" transform="matrix(-0.857984 0.513677 -0.790947 -0.611885 49.855 170.661)" stroke="black" stroke-opacity="0.5"/>
</g>
<circle cx="53.0578" cy="248.728" r="4.10775" transform="rotate(-122.242 53.0578 248.728)" fill="#1E1E1E" fill-opacity="0.9"/>
<circle cx="85.7316" cy="91.0058" r="4.10775" transform="rotate(-122.242 85.7316 91.0058)" fill="#1E1E1E" fill-opacity="0.9"/>
<circle cx="-2.15605" cy="40.7151" r="4.10775" transform="rotate(-122.242 -2.15605 40.7151)" fill="#1E1E1E" fill-opacity="0.9"/>
<circle cx="54.2224" cy="172.003" r="4.10775" transform="rotate(-122.242 54.2224 172.003)" fill="#1E1E1E" fill-opacity="0.9"/>
<circle cx="28.0236" cy="104.277" r="4.10775" transform="rotate(-122.242 28.0236 104.277)" fill="#1E1E1E" fill-opacity="0.9"/>
<circle cx="216.255" cy="172.224" r="4.10775" transform="rotate(-122.242 216.255 172.224)" fill="#1E1E1E" fill-opacity="0.9"/>
<circle cx="148.928" cy="259.293" r="4.10775" transform="rotate(-122.242 148.928 259.293)" fill="#1E1E1E" fill-opacity="0.9"/>
<circle cx="63.7302" cy="286.6" r="4.10775" transform="rotate(-122.242 63.7302 286.6)" fill="#1E1E1E" fill-opacity="0.9"/>
<circle cx="67.674" cy="345.234" r="4.10775" transform="rotate(-122.242 67.674 345.234)" fill="#1E1E1E" fill-opacity="0.9"/>
<circle cx="98.3674" cy="173.895" r="4.10775" transform="rotate(-122.242 98.3674 173.895)" fill="#1E1E1E" fill-opacity="0.9"/>
<circle cx="194.802" cy="70.1173" r="4.10775" transform="rotate(-122.242 194.802 70.1173)" fill="#1E1E1E" fill-opacity="0.9"/>
<circle cx="177.493" cy="110.77" r="4.10775" transform="rotate(-122.242 177.493 110.77)" fill="#1E1E1E" fill-opacity="0.9"/>
<circle cx="94.8601" cy="5.95412" r="4.10775" transform="rotate(-122.242 94.8601 5.95412)" fill="#1E1E1E" fill-opacity="0.9"/>
<circle cx="151.093" cy="173.677" r="4.10775" transform="rotate(-122.242 151.093 173.677)" fill="#1E1E1E" fill-opacity="0.9"/>
<path d="M154.416 216.059L-66.6522 210.29L12.1632 480.332L264.89 394.315L154.416 216.059Z" fill="#FF6433" fill-opacity="0.52"/>
<path d="M258.819 -45.9472L417.21 45.5L153.361 216.305L-67.1406 210.42L258.819 -45.9472Z" fill="#FF3D00" fill-opacity="0.7"/>
</svg>
