<svg width="365" height="384" fill="none" xmlns="http://www.w3.org/2000/svg"><defs/><circle cx="291.6" cy="367.9" r="4.2" transform="rotate(180 291.6 367.9)" fill="#1E1E1E" fill-opacity=".8"/><circle cx="228.2" cy="344.8" r="4.2" transform="rotate(180 228.2 344.8)" fill="#1E1E1E" fill-opacity=".8"/><circle cx="280" cy="307.4" r="4.2" transform="rotate(180 280 307.4)" fill="#1E1E1E" fill-opacity=".8"/><circle cx="190.8" cy="267" r="4.2" transform="rotate(180 190.8 267)" fill="#1E1E1E" fill-opacity=".8"/><circle cx="268.5" cy="226.7" r="4.2" transform="rotate(180 268.5 226.7)" fill="#1E1E1E" fill-opacity=".8"/><circle cx="160.5" cy="318.9" r="4.2" transform="rotate(180 160.5 318.9)" fill="#1E1E1E" fill-opacity=".8"/><circle cx="160.5" cy="379.4" r="4.2" transform="rotate(180 160.5 379.4)" fill="#1E1E1E" fill-opacity=".8"/><circle cx="45.3" cy="295.8" r="4.2" transform="rotate(180 45.3 295.8)" fill="#1E1E1E" fill-opacity=".8"/><circle cx="92.8" cy="330.4" r="4.2" transform="rotate(180 92.8 330.4)" fill="#1E1E1E" fill-opacity=".8"/><circle cx="149" cy="111.5" r="4.2" transform="rotate(180 149 111.5)" fill="#1E1E1E" fill-opacity=".8"/><circle cx="56.8" cy="160.5" r="4.2" transform="rotate(180 56.8 160.5)" fill="#1E1E1E" fill-opacity=".8"/><circle cx="202.3" cy="183.5" r="4.2" transform="rotate(180 202.3 183.5)" fill="#1E1E1E" fill-opacity=".8"/><circle cx="126" cy="226.7" r="4.2" transform="rotate(180 126 226.7)" fill="#1E1E1E" fill-opacity=".8"/><circle cx="128.8" cy="169.1" r="4.2" transform="rotate(180 128.8 169.1)" fill="#1E1E1E" fill-opacity=".8"/><circle cx="92.8" cy="272.8" r="4.2" transform="rotate(180 92.8 272.8)" fill="#1E1E1E" fill-opacity=".8"/><circle cx="5" cy="226.7" r="4.2" transform="rotate(180 5 226.7)" fill="#1E1E1E" fill-opacity=".8"/><circle cx="291.6" cy="42.4" r="4.2" transform="rotate(180 291.6 42.4)" fill="#1E1E1E" fill-opacity=".8"/><circle cx="330.4" cy="149" r="4.2" transform="rotate(180 330.4 149)" fill="#1E1E1E" fill-opacity=".8"/><circle cx="307.4" cy="238.2" r="4.2" transform="rotate(180 307.4 238.2)" fill="#1E1E1E" fill-opacity=".8"/><circle cx="360.7" cy="267" r="4.2" transform="rotate(180 360.7 267)" fill="#1E1E1E" fill-opacity=".8"/><circle cx="228.2" cy="146.1" r="4.2" transform="rotate(180 228.2 146)" fill="#1E1E1E" fill-opacity=".8"/><circle cx="190.8" cy="5" r="4.2" transform="rotate(180 190.8 5)" fill="#1E1E1E" fill-opacity=".8"/><circle cx="216.7" cy="42.4" r="4.2" transform="rotate(180 216.7 42.4)" fill="#1E1E1E" fill-opacity=".8"/><circle cx="79.9" cy="56.8" r="4.2" transform="rotate(180 79.9 56.8)" fill="#1E1E1E" fill-opacity=".8"/><circle cx="22.3" cy="100" r="4.2" transform="rotate(180 22.3 100)" fill="#1E1E1E" fill-opacity=".8"/><circle cx="257" cy="100" r="4.2" transform="rotate(180 257 100)" fill="#1E1E1E" fill-opacity=".8"/></svg>