<svg width="679" height="1492" viewBox="0 0 679 1492" fill="none" xmlns="http://www.w3.org/2000/svg">
<mask id="mask0" mask-type="alpha" maskUnits="userSpaceOnUse" x="102" y="50" width="443" height="365">
<path fill-rule="evenodd" clip-rule="evenodd" d="M339.922 72.1145C379.272 75.3042 420.051 56.7581 455.442 74.2367C493.734 93.1483 522.806 128.849 536.584 169.241C550.475 209.965 544.44 254.226 530.75 295.017C517.164 335.5 496.401 375.852 459.829 397.947C424.584 419.241 380.556 417.044 339.922 410.309C304.328 404.41 276.432 381.54 245.81 362.478C212.269 341.599 175.105 326.401 152.787 293.819C124.753 252.894 93.4095 205.034 104.919 156.796C116.549 108.056 162.747 71.3364 209.927 54.3351C252.1 39.1383 295.236 68.4922 339.922 72.1145Z" fill="#FFC368"/>
</mask>
<g mask="url(#mask0)">
<line y1="-0.5" x2="742.831" y2="-0.5" transform="matrix(0.695799 -0.718236 0.922363 0.386324 -212.99 405.438)" stroke="black" stroke-opacity="0.5"/>
<line y1="-0.5" x2="742.831" y2="-0.5" transform="matrix(0.695799 -0.718236 0.922363 0.386324 -117.517 410.58)" stroke="black" stroke-opacity="0.5"/>
<line y1="-0.5" x2="742.831" y2="-0.5" transform="matrix(0.695799 -0.718236 0.922363 0.386324 -32.1455 433.063)" stroke="black" stroke-opacity="0.5"/>
<line y1="-0.5" x2="742.831" y2="-0.5" transform="matrix(0.695799 -0.718236 0.922363 0.386324 63.3276 438.205)" stroke="black" stroke-opacity="0.5"/>
<line y1="-0.5" x2="742.831" y2="-0.5" transform="matrix(0.695799 -0.718236 0.922363 0.386324 157.783 462.833)" stroke="black" stroke-opacity="0.5"/>
<line y1="-0.5" x2="742.831" y2="-0.5" transform="matrix(0.695799 -0.718236 0.922363 0.386324 253.255 467.975)" stroke="black" stroke-opacity="0.5"/>
<line y1="-0.5" x2="742.831" y2="-0.5" transform="matrix(0.695799 -0.718236 0.922363 0.386324 338.627 490.458)" stroke="black" stroke-opacity="0.5"/>
<line y1="-0.5" x2="742.831" y2="-0.5" transform="matrix(0.695799 -0.718236 0.922363 0.386324 434.1 495.6)" stroke="black" stroke-opacity="0.5"/>
<line y1="-0.5" x2="742.831" y2="-0.5" transform="matrix(0.695799 -0.718236 0.922363 0.386324 -166.034 405.438)" stroke="black" stroke-opacity="0.5"/>
<line y1="-0.5" x2="742.831" y2="-0.5" transform="matrix(0.695799 -0.718236 0.922363 0.386324 -70.5605 410.58)" stroke="black" stroke-opacity="0.5"/>
<line y1="-0.5" x2="742.831" y2="-0.5" transform="matrix(0.695799 -0.718236 0.922363 0.386324 14.8105 433.063)" stroke="black" stroke-opacity="0.5"/>
<line y1="-0.5" x2="742.831" y2="-0.5" transform="matrix(0.695799 -0.718236 0.922363 0.386324 110.284 438.205)" stroke="black" stroke-opacity="0.5"/>
<line y1="-0.5" x2="742.831" y2="-0.5" transform="matrix(0.695799 -0.718236 0.922363 0.386324 204.739 462.833)" stroke="black" stroke-opacity="0.5"/>
<line y1="-0.5" x2="742.831" y2="-0.5" transform="matrix(0.695799 -0.718236 0.922363 0.386324 300.211 467.975)" stroke="black" stroke-opacity="0.5"/>
<line y1="-0.5" x2="742.831" y2="-0.5" transform="matrix(0.695799 -0.718236 0.922363 0.386324 385.583 490.458)" stroke="black" stroke-opacity="0.5"/>
<line y1="-0.5" x2="742.831" y2="-0.5" transform="matrix(0.695799 -0.718236 0.922363 0.386324 481.056 495.6)" stroke="black" stroke-opacity="0.5"/>
</g>
<circle cx="503.375" cy="286.814" r="5.85097" transform="rotate(42.7584 503.375 286.814)" fill="#1E1E1E" fill-opacity="0.9"/>
<circle cx="546.052" cy="369.644" r="5.85097" transform="rotate(42.7584 546.052 369.644)" fill="#1E1E1E" fill-opacity="0.9"/>
<circle cx="458.317" cy="358.995" r="5.85097" transform="rotate(42.7584 458.317 358.995)" fill="#1E1E1E" fill-opacity="0.9"/>
<circle cx="511.081" cy="483.681" r="5.85097" transform="rotate(42.7584 511.081 483.681)" fill="#1E1E1E" fill-opacity="0.9"/>
<circle cx="394.342" cy="451.634" r="5.85097" transform="rotate(42.7584 394.342 451.634)" fill="#1E1E1E" fill-opacity="0.9"/>
<circle cx="590.409" cy="459.451" r="5.85097" transform="rotate(42.7584 590.409 459.451)" fill="#1E1E1E" fill-opacity="0.9"/>
<circle cx="647.158" cy="398.079" r="5.85097" transform="rotate(42.7584 647.158 398.079)" fill="#1E1E1E" fill-opacity="0.9"/>
<circle cx="685.69" cy="590.923" r="5.85097" transform="rotate(42.7584 685.69 590.923)" fill="#1E1E1E" fill-opacity="0.9"/>
<circle cx="669.897" cy="511.265" r="5.85097" transform="rotate(42.7584 669.897 511.265)" fill="#1E1E1E" fill-opacity="0.9"/>
<circle cx="407.533" cy="680.679" r="5.85097" transform="rotate(42.7584 407.533 680.679)" fill="#1E1E1E" fill-opacity="0.9"/>
<circle cx="546.992" cy="717.471" r="5.85097" transform="rotate(42.7584 546.992 717.471)" fill="#1E1E1E" fill-opacity="0.9"/>
<circle cx="421.024" cy="557.624" r="5.85097" transform="rotate(42.7584 421.024 557.624)" fill="#1E1E1E" fill-opacity="0.9"/>
<circle cx="539.005" cy="585.398" r="5.85097" transform="rotate(42.7584 539.005 585.398)" fill="#1E1E1E" fill-opacity="0.9"/>
<circle cx="482.037" cy="641.146" r="5.85097" transform="rotate(42.7584 482.037 641.146)" fill="#1E1E1E" fill-opacity="0.9"/>
<circle cx="615.851" cy="569.715" r="5.85097" transform="rotate(42.7584 615.851 569.715)" fill="#1E1E1E" fill-opacity="0.9"/>
<circle cx="661.749" cy="698.895" r="5.85097" transform="rotate(42.7584 661.749 698.895)" fill="#1E1E1E" fill-opacity="0.9"/>
<circle cx="198.014" cy="617.055" r="5.85097" transform="rotate(42.7584 198.014 617.055)" fill="#1E1E1E" fill-opacity="0.9"/>
<circle cx="258.546" cy="472.441" r="5.85097" transform="rotate(42.7584 258.546 472.441)" fill="#1E1E1E" fill-opacity="0.9"/>
<circle cx="365.697" cy="403.463" r="5.85097" transform="rotate(42.7584 365.697 403.463)" fill="#1E1E1E" fill-opacity="0.9"/>
<circle cx="338.655" cy="324.245" r="5.85097" transform="rotate(42.7584 338.655 324.245)" fill="#1E1E1E" fill-opacity="0.9"/>
<circle cx="359.592" cy="571.296" r="5.85097" transform="rotate(42.7584 359.592 571.296)" fill="#1E1E1E" fill-opacity="0.9"/>
<circle cx="265.171" cy="749.628" r="5.85097" transform="rotate(42.7584 265.171 749.628)" fill="#1E1E1E" fill-opacity="0.9"/>
<circle cx="273.998" cy="687.315" r="5.85097" transform="rotate(42.7584 273.998 687.315)" fill="#1E1E1E" fill-opacity="0.9"/>
<circle cx="426.328" cy="801.062" r="5.85097" transform="rotate(42.7584 426.328 801.062)" fill="#1E1E1E" fill-opacity="0.9"/>
<circle cx="525.312" cy="811.271" r="5.85097" transform="rotate(42.7584 525.312 811.271)" fill="#1E1E1E" fill-opacity="0.9"/>
<circle cx="287.13" cy="591.033" r="5.85097" transform="rotate(42.7584 287.13 591.033)" fill="#1E1E1E" fill-opacity="0.9"/>
<path d="M490.5 607.5L32.0001 856.5L858 1315.28L926.507 841.398L490.5 607.5Z" fill="#FF6433" fill-opacity="0.52"/>
<path d="M394.968 -51H826.968L488.968 609L30.9678 857L394.968 -51Z" fill="#FF3D00" fill-opacity="0.7"/>
</svg>
