<svg width="304" height="251" fill="none" xmlns="http://www.w3.org/2000/svg"><mask id="a" maskUnits="userSpaceOnUse" x="-1" y="0" width="305" height="251"><path fill-rule="evenodd" clip-rule="evenodd" d="M140.3 235.2c-27-2.2-55 10.6-79.2-1.4a113.7 113.7 0 01-55.7-65.2c-9.5-28-5.4-58.3 4-86.3C18.7 54.5 33 27 58.1 11.7c24.1-14.6 54.3-13.1 82.2-8.5C164.7 7.2 184 23 205 36c23 14.4 48.5 24.8 63.8 47.1 19.2 28.1 40.7 61 32.8 94-8 33.5-39.6 58.7-72 70.3-29 10.4-58.5-9.7-89.2-12.2z" fill="#FFC368"/></mask><g mask="url(#a)" stroke="#000" stroke-opacity=".5"><path transform="matrix(-.6958 .71824 -.92236 -.38632 519.6 6.6)" d="M0-.5h509.6"/><path transform="matrix(-.6958 .71824 -.92236 -.38632 454.1 3)" d="M0-.5h509.6"/><path transform="matrix(-.6958 .71824 -.92236 -.38632 395.6 -12.4)" d="M0-.5h509.6"/><path transform="matrix(-.6958 .71824 -.92236 -.38632 330 -16)" d="M0-.5h509.6"/><path transform="matrix(-.6958 .71824 -.92236 -.38632 265.3 -32.8)" d="M0-.5h509.6"/><path transform="matrix(-.6958 .71824 -.92236 -.38632 199.8 -36.3)" d="M0-.5h509.6"/><path transform="matrix(-.6958 .71824 -.92236 -.38632 141.2 -51.8)" d="M0-.5h509.6"/><path transform="matrix(-.6958 .71824 -.92236 -.38632 141.2 -76)" d="M0-.5h509.6"/><path transform="matrix(-.6958 .71824 -.92236 -.38632 75.7 -55.3)" d="M0-.5h509.6"/><path transform="matrix(-.6958 .71824 -.92236 -.38632 487.4 6.6)" d="M0-.5h509.6"/><path transform="matrix(-.6958 .71824 -.92236 -.38632 422 3)" d="M0-.5h509.6"/><path transform="matrix(-.6958 .71824 -.92236 -.38632 363.4 -12.4)" d="M0-.5h509.6"/><path transform="matrix(-.6958 .71824 -.92236 -.38632 297.9 -16)" d="M0-.5h509.6"/><path transform="matrix(-.6958 .71824 -.92236 -.38632 233 -32.8)" d="M0-.5h509.6"/><path transform="matrix(-.6958 .71824 -.92236 -.38632 167.6 -36.3)" d="M0-.5h509.6"/><path transform="matrix(-.6958 .71824 -.92236 -.38632 109 -51.8)" d="M0-.5h509.6"/><path transform="matrix(-.6958 .71824 -.92236 -.38632 43.5 -55.3)" d="M0-.5h509.6"/></g></svg>