<svg width="262" height="96" fill="none" xmlns="http://www.w3.org/2000/svg"><defs/><mask id="a" mask-type="alpha" maskUnits="userSpaceOnUse" x="0" y="0" width="262" height="96"><path fill="#2E2E2E" d="M0 0h262v96H0z"/></mask><g mask="url(#a)" fill="#1E1E1E" fill-opacity=".9"><circle cx="3.5" cy="64.3" r="2" transform="rotate(56.7 3.5 64.3)"/><circle cx="21" cy="64.3" r="2" transform="rotate(56.7 21 64.3)"/><circle cx="56.1" cy="64.3" r="2" transform="rotate(56.7 56 64.3)"/><circle cx="73.6" cy="64.3" r="2" transform="rotate(56.7 73.6 64.3)"/><circle cx="38.5" cy="64.3" r="2" transform="rotate(56.7 38.5 64.3)"/><circle cx="3.5" cy="77.9" r="2" transform="rotate(56.7 3.5 77.9)"/><circle cx="21" cy="77.9" r="2" transform="rotate(56.7 21 77.9)"/><circle cx="56.1" cy="77.9" r="2" transform="rotate(56.7 56 77.9)"/><circle cx="73.6" cy="77.8" r="2" transform="rotate(56.7 73.6 77.8)"/><circle cx="38.5" cy="77.9" r="2" transform="rotate(56.7 38.5 77.9)"/><circle cx="3.5" cy="91.4" r="2" transform="rotate(56.7 3.5 91.4)"/><circle cx="21" cy="91.4" r="2" transform="rotate(56.7 21 91.4)"/><circle cx="56.1" cy="91.4" r="2" transform="rotate(56.7 56 91.4)"/><circle cx="73.6" cy="91.4" r="2" transform="rotate(56.7 73.6 91.4)"/><circle cx="38.5" cy="91.4" r="2" transform="rotate(56.7 38.5 91.4)"/><circle cx="3.5" cy="-2.4" r="2" transform="rotate(56.7 3.5 -2.4)"/><circle cx="21" cy="-2.4" r="2" transform="rotate(56.7 21 -2.4)"/><circle cx="56.1" cy="-2.4" r="2" transform="rotate(56.7 56 -2.4)"/><circle cx="73.6" cy="-2.4" r="2" transform="rotate(56.7 73.6 -2.4)"/><circle cx="38.5" cy="-2.4" r="2" transform="rotate(56.7 38.5 -2.4)"/><circle cx="91.2" cy="64.3" r="2" transform="rotate(56.7 91.2 64.3)"/><circle cx="108.7" cy="64.3" r="2" transform="rotate(56.7 108.7 64.3)"/><circle cx="143.8" cy="64.3" r="2" transform="rotate(56.7 143.8 64.3)"/><circle cx="161.3" cy="64.3" r="2" transform="rotate(56.7 161.3 64.3)"/><circle cx="126.2" cy="64.3" r="2" transform="rotate(56.7 126.2 64.3)"/><circle cx="91.2" cy="77.9" r="2" transform="rotate(56.7 91.2 77.9)"/><circle cx="108.7" cy="77.9" r="2" transform="rotate(56.7 108.7 77.9)"/><circle cx="143.8" cy="77.9" r="2" transform="rotate(56.7 143.8 77.9)"/><circle cx="161.3" cy="77.8" r="2" transform="rotate(56.7 161.3 77.8)"/><circle cx="126.2" cy="77.9" r="2" transform="rotate(56.7 126.2 77.9)"/><circle cx="91.2" cy="91.4" r="2" transform="rotate(56.7 91.2 91.4)"/><circle cx="108.7" cy="91.4" r="2" transform="rotate(56.7 108.7 91.4)"/><circle cx="143.8" cy="91.4" r="2" transform="rotate(56.7 143.8 91.4)"/><circle cx="161.3" cy="91.4" r="2" transform="rotate(56.7 161.3 91.4)"/><circle cx="126.2" cy="91.4" r="2" transform="rotate(56.7 126.2 91.4)"/><circle cx="91.2" cy="-2.4" r="2" transform="rotate(56.7 91.2 -2.4)"/><circle cx="108.7" cy="-2.4" r="2" transform="rotate(56.7 108.7 -2.4)"/><circle cx="143.8" cy="-2.4" r="2" transform="rotate(56.7 143.8 -2.4)"/><circle cx="161.3" cy="-2.4" r="2" transform="rotate(56.7 161.3 -2.4)"/><circle cx="126.2" cy="-2.4" r="2" transform="rotate(56.7 126.2 -2.4)"/><circle cx="3.5" cy="11.1" r="2" transform="rotate(56.7 3.5 11.1)"/><circle cx="21" cy="11.1" r="2" transform="rotate(56.7 21 11.1)"/><circle cx="56.1" cy="11.1" r="2" transform="rotate(56.7 56 11.1)"/><circle cx="73.6" cy="11.1" r="2" transform="rotate(56.7 73.6 11.1)"/><circle cx="38.5" cy="11.1" r="2" transform="rotate(56.7 38.5 11.1)"/><circle cx="3.5" cy="24.6" r="2" transform="rotate(56.7 3.5 24.6)"/><circle cx="21" cy="24.6" r="2" transform="rotate(56.7 21 24.6)"/><circle cx="56.1" cy="24.6" r="2" transform="rotate(56.7 56 24.6)"/><circle cx="73.6" cy="24.6" r="2" transform="rotate(56.7 73.6 24.6)"/><circle cx="38.5" cy="24.6" r="2" transform="rotate(56.7 38.5 24.6)"/><circle cx="3.5" cy="38.2" r="2" transform="rotate(56.7 3.5 38.2)"/><circle cx="21" cy="38.2" r="2" transform="rotate(56.7 21 38.2)"/><circle cx="56.1" cy="38.2" r="2" transform="rotate(56.7 56 38.2)"/><circle cx="73.6" cy="38.2" r="2" transform="rotate(56.7 73.6 38.2)"/><circle cx="38.5" cy="38.2" r="2" transform="rotate(56.7 38.5 38.2)"/><circle cx="3.5" cy="51.7" r="2" transform="rotate(56.7 3.5 51.7)"/><circle cx="21" cy="51.7" r="2" transform="rotate(56.7 21 51.7)"/><circle cx="56.1" cy="51.7" r="2" transform="rotate(56.7 56 51.7)"/><circle cx="73.6" cy="51.7" r="2" transform="rotate(56.7 73.6 51.7)"/><circle cx="38.5" cy="51.7" r="2" transform="rotate(56.7 38.5 51.7)"/><circle cx="91.2" cy="11.1" r="2" transform="rotate(56.7 91.2 11.1)"/><circle cx="108.7" cy="11.1" r="2" transform="rotate(56.7 108.7 11.1)"/><circle cx="143.8" cy="11.1" r="2" transform="rotate(56.7 143.8 11.1)"/><circle cx="161.3" cy="11.1" r="2" transform="rotate(56.7 161.3 11.1)"/><circle cx="126.2" cy="11.1" r="2" transform="rotate(56.7 126.2 11.1)"/><circle cx="91.2" cy="24.6" r="2" transform="rotate(56.7 91.2 24.6)"/><circle cx="108.7" cy="24.6" r="2" transform="rotate(56.7 108.7 24.6)"/><circle cx="143.8" cy="24.6" r="2" transform="rotate(56.7 143.8 24.6)"/><circle cx="161.3" cy="24.6" r="2" transform="rotate(56.7 161.3 24.6)"/><circle cx="126.2" cy="24.6" r="2" transform="rotate(56.7 126.2 24.6)"/><circle cx="91.2" cy="38.2" r="2" transform="rotate(56.7 91.2 38.2)"/><circle cx="108.7" cy="38.2" r="2" transform="rotate(56.7 108.7 38.2)"/><circle cx="143.8" cy="38.2" r="2" transform="rotate(56.7 143.8 38.2)"/><circle cx="161.3" cy="38.2" r="2" transform="rotate(56.7 161.3 38.2)"/><circle cx="126.2" cy="38.2" r="2" transform="rotate(56.7 126.2 38.2)"/><circle cx="91.2" cy="51.7" r="2" transform="rotate(56.7 91.2 51.7)"/><circle cx="108.7" cy="51.7" r="2" transform="rotate(56.7 108.7 51.7)"/><circle cx="143.8" cy="51.7" r="2" transform="rotate(56.7 143.8 51.7)"/><circle cx="161.3" cy="51.7" r="2" transform="rotate(56.7 161.3 51.7)"/><circle cx="126.2" cy="51.7" r="2" transform="rotate(56.7 126.2 51.7)"/><circle cx="176.5" cy="64.3" r="2" transform="rotate(56.7 176.5 64.3)"/><circle cx="194" cy="64.3" r="2" transform="rotate(56.7 194 64.3)"/><circle cx="229.1" cy="64.3" r="2" transform="rotate(56.7 229 64.3)"/><circle cx="246.6" cy="64.3" r="2" transform="rotate(56.7 246.6 64.3)"/><circle cx="211.5" cy="64.3" r="2" transform="rotate(56.7 211.5 64.3)"/><circle cx="176.5" cy="77.9" r="2" transform="rotate(56.7 176.5 77.9)"/><circle cx="194" cy="77.9" r="2" transform="rotate(56.7 194 77.9)"/><circle cx="229.1" cy="77.9" r="2" transform="rotate(56.7 229 77.9)"/><circle cx="246.6" cy="77.8" r="2" transform="rotate(56.7 246.6 77.8)"/><circle cx="211.5" cy="77.9" r="2" transform="rotate(56.7 211.5 77.9)"/><circle cx="176.5" cy="91.4" r="2" transform="rotate(56.7 176.5 91.4)"/><circle cx="194" cy="91.4" r="2" transform="rotate(56.7 194 91.4)"/><circle cx="229.1" cy="91.4" r="2" transform="rotate(56.7 229 91.4)"/><circle cx="246.6" cy="91.4" r="2" transform="rotate(56.7 246.6 91.4)"/><circle cx="211.5" cy="91.4" r="2" transform="rotate(56.7 211.5 91.4)"/><circle cx="176.5" cy="-2.4" r="2" transform="rotate(56.7 176.5 -2.4)"/><circle cx="194" cy="-2.4" r="2" transform="rotate(56.7 194 -2.4)"/><circle cx="229.1" cy="-2.4" r="2" transform="rotate(56.7 229 -2.4)"/><circle cx="246.6" cy="-2.4" r="2" transform="rotate(56.7 246.6 -2.4)"/><circle cx="211.5" cy="-2.4" r="2" transform="rotate(56.7 211.5 -2.4)"/><circle cx="264.2" cy="64.3" r="2" transform="rotate(56.7 264.2 64.3)"/><circle cx="264.2" cy="77.9" r="2" transform="rotate(56.7 264.2 77.9)"/><circle cx="264.2" cy="91.4" r="2" transform="rotate(56.7 264.2 91.4)"/><circle cx="264.2" cy="-2.4" r="2" transform="rotate(56.7 264.2 -2.4)"/><circle cx="176.5" cy="11.1" r="2" transform="rotate(56.7 176.5 11.1)"/><circle cx="194" cy="11.1" r="2" transform="rotate(56.7 194 11.1)"/><circle cx="229.1" cy="11.1" r="2" transform="rotate(56.7 229 11.1)"/><circle cx="246.6" cy="11.1" r="2" transform="rotate(56.7 246.6 11.1)"/><circle cx="211.5" cy="11.1" r="2" transform="rotate(56.7 211.5 11.1)"/><circle cx="176.5" cy="24.6" r="2" transform="rotate(56.7 176.5 24.6)"/><circle cx="194" cy="24.6" r="2" transform="rotate(56.7 194 24.6)"/><circle cx="229.1" cy="24.6" r="2" transform="rotate(56.7 229 24.6)"/><circle cx="246.6" cy="24.6" r="2" transform="rotate(56.7 246.6 24.6)"/><circle cx="211.5" cy="24.6" r="2" transform="rotate(56.7 211.5 24.6)"/><circle cx="176.5" cy="38.2" r="2" transform="rotate(56.7 176.5 38.2)"/><circle cx="194" cy="38.2" r="2" transform="rotate(56.7 194 38.2)"/><circle cx="229.1" cy="38.2" r="2" transform="rotate(56.7 229 38.2)"/><circle cx="246.6" cy="38.2" r="2" transform="rotate(56.7 246.6 38.2)"/><circle cx="211.5" cy="38.2" r="2" transform="rotate(56.7 211.5 38.2)"/><circle cx="176.5" cy="51.7" r="2" transform="rotate(56.7 176.5 51.7)"/><circle cx="194" cy="51.7" r="2" transform="rotate(56.7 194 51.7)"/><circle cx="229.1" cy="51.7" r="2" transform="rotate(56.7 229 51.7)"/><circle cx="246.6" cy="51.7" r="2" transform="rotate(56.7 246.6 51.7)"/><circle cx="211.5" cy="51.7" r="2" transform="rotate(56.7 211.5 51.7)"/><circle cx="264.2" cy="11.1" r="2" transform="rotate(56.7 264.2 11.1)"/><circle cx="264.2" cy="24.6" r="2" transform="rotate(56.7 264.2 24.6)"/><circle cx="264.2" cy="38.2" r="2" transform="rotate(56.7 264.2 38.2)"/><circle cx="264.2" cy="51.7" r="2" transform="rotate(56.7 264.2 51.7)"/></g></svg>