<svg width="999" height="905" viewBox="0 0 999 905" fill="none" xmlns="http://www.w3.org/2000/svg">
<mask id="mask0" mask-type="alpha" maskUnits="userSpaceOnUse" x="0" y="0" width="999" height="905">
<rect width="999" height="905" fill="#C4C4C4"/>
</mask>
<g mask="url(#mask0)">
<mask id="mask1" mask-type="alpha" maskUnits="userSpaceOnUse" x="52" y="114" width="442" height="365">
<path fill-rule="evenodd" clip-rule="evenodd" d="M289.447 136.114C328.797 139.304 369.576 120.758 404.967 138.237C443.26 157.148 472.332 192.849 486.11 233.241C500.001 273.965 493.965 318.226 480.275 359.017C466.689 399.5 445.926 439.852 409.354 461.947C374.109 483.241 330.081 481.044 289.447 474.309C253.854 468.41 225.957 445.54 195.336 426.478C161.794 405.599 124.63 390.401 102.312 357.819C74.2787 316.894 42.9348 269.034 54.4444 220.796C66.0738 172.056 112.272 135.336 159.453 118.335C201.626 103.138 244.761 132.492 289.447 136.114Z" fill="#FFC368"/>
</mask>
<g mask="url(#mask1)">
<line y1="-0.5" x2="742.831" y2="-0.5" transform="matrix(0.695799 -0.718236 0.922363 0.386324 -263.465 469.438)" stroke="black" stroke-opacity="0.5"/>
<line y1="-0.5" x2="742.831" y2="-0.5" transform="matrix(0.695799 -0.718236 0.922363 0.386324 -167.991 474.58)" stroke="black" stroke-opacity="0.5"/>
<line y1="-0.5" x2="742.831" y2="-0.5" transform="matrix(0.695799 -0.718236 0.922363 0.386324 -82.62 497.062)" stroke="black" stroke-opacity="0.5"/>
<line y1="-0.5" x2="742.831" y2="-0.5" transform="matrix(0.695799 -0.718236 0.922363 0.386324 12.8528 502.205)" stroke="black" stroke-opacity="0.5"/>
<line y1="-0.5" x2="742.831" y2="-0.5" transform="matrix(0.695799 -0.718236 0.922363 0.386324 107.308 526.833)" stroke="black" stroke-opacity="0.5"/>
<line y1="-0.5" x2="742.831" y2="-0.5" transform="matrix(0.695799 -0.718236 0.922363 0.386324 202.781 531.975)" stroke="black" stroke-opacity="0.5"/>
<line y1="-0.5" x2="742.831" y2="-0.5" transform="matrix(0.695799 -0.718236 0.922363 0.386324 288.152 554.458)" stroke="black" stroke-opacity="0.5"/>
<line y1="-0.5" x2="742.831" y2="-0.5" transform="matrix(0.695799 -0.718236 0.922363 0.386324 383.625 559.6)" stroke="black" stroke-opacity="0.5"/>
<line y1="-0.5" x2="742.831" y2="-0.5" transform="matrix(0.695799 -0.718236 0.922363 0.386324 -216.508 469.438)" stroke="black" stroke-opacity="0.5"/>
<line y1="-0.5" x2="742.831" y2="-0.5" transform="matrix(0.695799 -0.718236 0.922363 0.386324 -121.035 474.58)" stroke="black" stroke-opacity="0.5"/>
<line y1="-0.5" x2="742.831" y2="-0.5" transform="matrix(0.695799 -0.718236 0.922363 0.386324 -35.664 497.062)" stroke="black" stroke-opacity="0.5"/>
<line y1="-0.5" x2="742.831" y2="-0.5" transform="matrix(0.695799 -0.718236 0.922363 0.386324 59.8088 502.205)" stroke="black" stroke-opacity="0.5"/>
<line y1="-0.5" x2="742.831" y2="-0.5" transform="matrix(0.695799 -0.718236 0.922363 0.386324 154.264 526.833)" stroke="black" stroke-opacity="0.5"/>
<line y1="-0.5" x2="742.831" y2="-0.5" transform="matrix(0.695799 -0.718236 0.922363 0.386324 249.737 531.975)" stroke="black" stroke-opacity="0.5"/>
<line y1="-0.5" x2="742.831" y2="-0.5" transform="matrix(0.695799 -0.718236 0.922363 0.386324 335.108 554.458)" stroke="black" stroke-opacity="0.5"/>
<line y1="-0.5" x2="742.831" y2="-0.5" transform="matrix(0.695799 -0.718236 0.922363 0.386324 430.581 559.6)" stroke="black" stroke-opacity="0.5"/>
</g>
<circle cx="452.899" cy="350.814" r="5.85097" transform="rotate(42.7584 452.899 350.814)" fill="#1E1E1E" fill-opacity="0.9"/>
<circle cx="495.575" cy="433.644" r="5.85097" transform="rotate(42.7584 495.575 433.644)" fill="#1E1E1E" fill-opacity="0.9"/>
<circle cx="407.841" cy="422.995" r="5.85097" transform="rotate(42.7584 407.841 422.995)" fill="#1E1E1E" fill-opacity="0.9"/>
<circle cx="460.605" cy="547.681" r="5.85097" transform="rotate(42.7584 460.605 547.681)" fill="#1E1E1E" fill-opacity="0.9"/>
<circle cx="343.866" cy="515.634" r="5.85097" transform="rotate(42.7584 343.866 515.634)" fill="#1E1E1E" fill-opacity="0.9"/>
<circle cx="539.933" cy="523.451" r="5.85097" transform="rotate(42.7584 539.933 523.451)" fill="#1E1E1E" fill-opacity="0.9"/>
<circle cx="596.681" cy="462.079" r="5.85097" transform="rotate(42.7584 596.681 462.079)" fill="#1E1E1E" fill-opacity="0.9"/>
<circle cx="635.214" cy="654.923" r="5.85097" transform="rotate(42.7584 635.214 654.923)" fill="#1E1E1E" fill-opacity="0.9"/>
<circle cx="619.421" cy="575.265" r="5.85097" transform="rotate(42.7584 619.421 575.265)" fill="#1E1E1E" fill-opacity="0.9"/>
<circle cx="357.057" cy="744.679" r="5.85097" transform="rotate(42.7584 357.057 744.679)" fill="#1E1E1E" fill-opacity="0.9"/>
<circle cx="496.515" cy="781.471" r="5.85097" transform="rotate(42.7584 496.515 781.471)" fill="#1E1E1E" fill-opacity="0.9"/>
<circle cx="370.548" cy="621.624" r="5.85097" transform="rotate(42.7584 370.548 621.624)" fill="#1E1E1E" fill-opacity="0.9"/>
<circle cx="488.529" cy="649.398" r="5.85097" transform="rotate(42.7584 488.529 649.398)" fill="#1E1E1E" fill-opacity="0.9"/>
<circle cx="431.56" cy="705.146" r="5.85097" transform="rotate(42.7584 431.56 705.146)" fill="#1E1E1E" fill-opacity="0.9"/>
<circle cx="565.374" cy="633.715" r="5.85097" transform="rotate(42.7584 565.374 633.715)" fill="#1E1E1E" fill-opacity="0.9"/>
<circle cx="611.273" cy="762.895" r="5.85097" transform="rotate(42.7584 611.273 762.895)" fill="#1E1E1E" fill-opacity="0.9"/>
<circle cx="147.538" cy="681.054" r="5.85097" transform="rotate(42.7584 147.538 681.054)" fill="#1E1E1E" fill-opacity="0.9"/>
<circle cx="208.07" cy="536.442" r="5.85097" transform="rotate(42.7584 208.07 536.442)" fill="#1E1E1E" fill-opacity="0.9"/>
<circle cx="315.221" cy="467.463" r="5.85097" transform="rotate(42.7584 315.221 467.463)" fill="#1E1E1E" fill-opacity="0.9"/>
<circle cx="288.178" cy="388.245" r="5.85097" transform="rotate(42.7584 288.178 388.245)" fill="#1E1E1E" fill-opacity="0.9"/>
<circle cx="309.116" cy="635.296" r="5.85097" transform="rotate(42.7584 309.116 635.296)" fill="#1E1E1E" fill-opacity="0.9"/>
<circle cx="214.695" cy="813.628" r="5.85097" transform="rotate(42.7584 214.695 813.628)" fill="#1E1E1E" fill-opacity="0.9"/>
<circle cx="223.522" cy="751.315" r="5.85097" transform="rotate(42.7584 223.522 751.315)" fill="#1E1E1E" fill-opacity="0.9"/>
<circle cx="375.852" cy="865.062" r="5.85097" transform="rotate(42.7584 375.852 865.062)" fill="#1E1E1E" fill-opacity="0.9"/>
<circle cx="474.836" cy="875.271" r="5.85097" transform="rotate(42.7584 474.836 875.271)" fill="#1E1E1E" fill-opacity="0.9"/>
<circle cx="236.654" cy="655.033" r="5.85097" transform="rotate(42.7584 236.654 655.033)" fill="#1E1E1E" fill-opacity="0.9"/>
<path d="M456 661L4.99998 905L461.09 1379.28L876.001 905.398L456 661Z" fill="#FF6433" fill-opacity="0.52"/>
<path d="M362 1H794L456 661L5 905H0L362 1Z" fill="#FF3D00" fill-opacity="0.7"/>
</g>
</svg>
