<svg width="262" height="96" fill="none" xmlns="http://www.w3.org/2000/svg"><mask id="a" mask-type="alpha" maskUnits="userSpaceOnUse" x="0" y="0" width="262" height="96"><path d="M262 0H0v96h262V0z" fill="#2E2E2E"/></mask><g mask="url(#a)" fill="#fff" fill-opacity=".9"><path d="M1.8 65.4a2 2 0 103.3-2.2 2 2 0 00-3.3 2.2zM19.3 65.4a2 2 0 103.4-2.2 2 2 0 00-3.4 2.2zM54.4 65.4a2 2 0 103.4-2.2 2 2 0 00-3.4 2.2zM72 65.4a2 2 0 103.3-2.2 2 2 0 00-3.3 2.2zM36.9 65.4a2 2 0 103.3-2.2 2 2 0 00-3.3 2.2zM1.8 79a2 2 0 103.3-2.2 2 2 0 00-3.3 2.1zM19.3 79a2 2 0 103.4-2.2 2 2 0 00-3.4 2.1zM54.4 79a2 2 0 103.4-2.2 2 2 0 00-3.4 2.1zM72 79a2 2 0 103.3-2.2 2 2 0 00-3.3 2.1zM36.9 79a2 2 0 103.3-2.2 2 2 0 00-3.3 2.1zM1.8 92.5a2 2 0 103.3-2.2 2 2 0 00-3.3 2.2zM19.3 92.5a2 2 0 103.4-2.2 2 2 0 00-3.4 2.2zM54.4 92.5a2 2 0 103.4-2.2 2 2 0 00-3.4 2.2zM72 92.5a2 2 0 103.3-2.2 2 2 0 00-3.3 2.2zM36.9 92.5a2 2 0 103.3-2.2 2 2 0 00-3.3 2.2zM1.8-1.3a2 2 0 103.3-2.2 2 2 0 00-3.3 2.2zM19.3-1.3a2 2 0 103.4-2.2 2 2 0 00-3.4 2.2zM54.4-1.3a2 2 0 103.4-2.2 2 2 0 00-3.4 2.2zM72-1.3a2 2 0 103.3-2.2A2 2 0 0072-1.3zM36.9-1.3a2 2 0 103.3-2.2A2 2 0 0037-1.3zM89.5 65.4a2 2 0 103.3-2.2 2 2 0 00-3.3 2.2zM107 65.4a2 2 0 103.4-2.2 2 2 0 00-3.4 2.2zM142.1 65.4a2 2 0 103.4-2.2 2 2 0 00-3.4 2.2zM159.6 65.4a2 2 0 103.4-2.2 2 2 0 00-3.4 2.2zM124.6 65.4a2 2 0 103.3-2.2 2 2 0 00-3.3 2.2zM89.5 79a2 2 0 103.3-2.2 2 2 0 00-3.3 2.1zM107 79a2 2 0 103.4-2.2 2 2 0 00-3.4 2.1zM142.1 79a2 2 0 103.4-2.2 2 2 0 00-3.4 2.1zM159.6 79a2 2 0 103.4-2.2 2 2 0 00-3.4 2.1zM124.6 79a2 2 0 103.3-2.2 2 2 0 00-3.3 2.1zM89.5 92.5a2 2 0 103.3-2.2 2 2 0 00-3.3 2.2zM107 92.5a2 2 0 103.4-2.2 2 2 0 00-3.4 2.2zM142.1 92.5a2 2 0 103.4-2.2 2 2 0 00-3.4 2.2zM159.6 92.5a2 2 0 103.4-2.2 2 2 0 00-3.4 2.2zM124.6 92.5a2 2 0 103.3-2.2 2 2 0 00-3.3 2.2zM89.5-1.3a2 2 0 103.3-2.2 2 2 0 00-3.3 2.2zM107-1.3a2 2 0 103.4-2.2 2 2 0 00-3.4 2.2zM142.1-1.3a2 2 0 103.4-2.2 2 2 0 00-3.4 2.2zM159.6-1.3a2 2 0 103.4-2.2 2 2 0 00-3.4 2.2zM124.6-1.3a2 2 0 103.3-2.2 2 2 0 00-3.3 2.2zM1.8 12.2A2 2 0 105.1 10a2 2 0 00-3.3 2.2zM19.3 12.2a2 2 0 103.4-2.2 2 2 0 00-3.4 2.2zM54.4 12.2a2 2 0 103.4-2.2 2 2 0 00-3.4 2.2zM72 12.2a2 2 0 103.3-2.2 2 2 0 00-3.3 2.2zM36.9 12.2a2 2 0 103.3-2.2 2 2 0 00-3.3 2.2zM1.8 25.7a2 2 0 103.3-2.2 2 2 0 00-3.3 2.2zM19.3 25.7a2 2 0 103.4-2.2 2 2 0 00-3.4 2.2zM54.4 25.7a2 2 0 103.4-2.2 2 2 0 00-3.4 2.2zM72 25.7a2 2 0 103.3-2.2 2 2 0 00-3.3 2.2zM36.9 25.7a2 2 0 103.3-2.2 2 2 0 00-3.3 2.2zM1.8 39.3A2 2 0 105.1 37a2 2 0 00-3.3 2.2zM19.3 39.3a2 2 0 103.4-2.2 2 2 0 00-3.4 2.2zM54.4 39.3a2 2 0 103.4-2.2 2 2 0 00-3.4 2.2zM72 39.3a2 2 0 103.3-2.2 2 2 0 00-3.3 2.2zM36.9 39.3a2 2 0 103.3-2.2 2 2 0 00-3.3 2.2zM1.8 52.8a2 2 0 103.3-2.2 2 2 0 00-3.3 2.2zM19.3 52.8a2 2 0 103.4-2.2 2 2 0 00-3.4 2.2zM54.4 52.8a2 2 0 103.4-2.2 2 2 0 00-3.4 2.2zM72 52.8a2 2 0 103.3-2.2 2 2 0 00-3.3 2.2zM36.9 52.8a2 2 0 103.3-2.2 2 2 0 00-3.3 2.2zM89.5 12.2a2 2 0 103.3-2.2 2 2 0 00-3.3 2.2zM107 12.2a2 2 0 103.4-2.2 2 2 0 00-3.4 2.2zM142.1 12.2a2 2 0 103.4-2.2 2 2 0 00-3.4 2.2zM159.6 12.2A2 2 0 10163 10a2 2 0 00-3.4 2.2zM124.6 12.2a2 2 0 103.3-2.2 2 2 0 00-3.3 2.2zM89.5 25.7a2 2 0 103.3-2.2 2 2 0 00-3.3 2.2zM107 25.7a2 2 0 103.4-2.2 2 2 0 00-3.4 2.2zM142.1 25.7a2 2 0 103.4-2.2 2 2 0 00-3.4 2.2zM159.6 25.7a2 2 0 103.4-2.2 2 2 0 00-3.4 2.2zM124.6 25.7a2 2 0 103.3-2.2 2 2 0 00-3.3 2.2zM89.5 39.3a2 2 0 103.3-2.2 2 2 0 00-3.3 2.2zM107 39.3a2 2 0 103.4-2.2 2 2 0 00-3.4 2.2zM142.1 39.3a2 2 0 103.4-2.2 2 2 0 00-3.4 2.2zM159.6 39.3A2 2 0 10163 37a2 2 0 00-3.4 2.2zM124.6 39.3a2 2 0 103.3-2.2 2 2 0 00-3.3 2.2zM89.5 52.8a2 2 0 103.3-2.2 2 2 0 00-3.3 2.2zM107 52.8a2 2 0 103.4-2.2 2 2 0 00-3.4 2.2zM142.1 52.8a2 2 0 103.4-2.2 2 2 0 00-3.4 2.2zM159.6 52.8a2 2 0 103.4-2.2 2 2 0 00-3.4 2.2zM124.6 52.8a2 2 0 103.3-2.2 2 2 0 00-3.3 2.2zM174.8 65.4a2 2 0 103.3-2.2 2 2 0 00-3.3 2.2zM192.3 65.4a2 2 0 103.4-2.2 2 2 0 00-3.4 2.2zM227.4 65.4a2 2 0 103.4-2.2 2 2 0 00-3.4 2.2zM245 65.4a2 2 0 103.3-2.2 2 2 0 00-3.3 2.2zM209.9 65.4a2 2 0 103.3-2.2 2 2 0 00-3.3 2.2zM174.8 79a2 2 0 103.3-2.2 2 2 0 00-3.3 2.1zM192.3 79a2 2 0 103.4-2.2 2 2 0 00-3.4 2.1zM227.4 79a2 2 0 103.4-2.2 2 2 0 00-3.4 2.1zM245 79a2 2 0 103.3-2.2 2 2 0 00-3.3 2.1zM209.9 79a2 2 0 103.3-2.2 2 2 0 00-3.3 2.1zM174.8 92.5a2 2 0 103.3-2.2 2 2 0 00-3.3 2.2zM192.3 92.5a2 2 0 103.4-2.2 2 2 0 00-3.4 2.2zM227.4 92.5a2 2 0 103.4-2.2 2 2 0 00-3.4 2.2zM245 92.5a2 2 0 103.3-2.2 2 2 0 00-3.3 2.2zM209.9 92.5a2 2 0 103.3-2.2 2 2 0 00-3.3 2.2zM174.8-1.3a2 2 0 103.3-2.2 2 2 0 00-3.3 2.2zM192.3-1.3a2 2 0 103.4-2.2 2 2 0 00-3.4 2.2zM227.4-1.3a2 2 0 103.4-2.2 2 2 0 00-3.4 2.2zM245-1.3a2 2 0 103.3-2.2 2 2 0 00-3.3 2.2zM209.9-1.3a2 2 0 103.3-2.2 2 2 0 00-3.3 2.2zM262.5 65.4a2 2 0 103.3-2.2 2 2 0 00-3.3 2.2zM262.5 79a2 2 0 103.3-2.2 2 2 0 00-3.3 2.1zM262.5 92.5a2 2 0 103.3-2.2 2 2 0 00-3.3 2.2zM262.5-1.3a2 2 0 103.3-2.2 2 2 0 00-3.3 2.2zM174.8 12.2a2 2 0 103.3-2.2 2 2 0 00-3.3 2.2zM192.3 12.2a2 2 0 103.4-2.2 2 2 0 00-3.4 2.2zM227.4 12.2a2 2 0 103.4-2.2 2 2 0 00-3.4 2.2zM245 12.2a2 2 0 103.3-2.2 2 2 0 00-3.3 2.2zM209.9 12.2a2 2 0 103.3-2.2 2 2 0 00-3.3 2.2zM174.8 25.7a2 2 0 103.3-2.2 2 2 0 00-3.3 2.2zM192.3 25.7a2 2 0 103.4-2.2 2 2 0 00-3.4 2.2zM227.4 25.7a2 2 0 103.4-2.2 2 2 0 00-3.4 2.2zM245 25.7a2 2 0 103.3-2.2 2 2 0 00-3.3 2.2zM209.9 25.7a2 2 0 103.3-2.2 2 2 0 00-3.3 2.2zM174.8 39.3a2 2 0 103.3-2.2 2 2 0 00-3.3 2.2zM192.3 39.3a2 2 0 103.4-2.2 2 2 0 00-3.4 2.2zM227.4 39.3a2 2 0 103.4-2.2 2 2 0 00-3.4 2.2zM245 39.3a2 2 0 103.3-2.2 2 2 0 00-3.3 2.2zM209.9 39.3a2 2 0 103.3-2.2 2 2 0 00-3.3 2.2zM174.8 52.8a2 2 0 103.3-2.2 2 2 0 00-3.3 2.2zM192.3 52.8a2 2 0 103.4-2.2 2 2 0 00-3.4 2.2zM227.4 52.8a2 2 0 103.4-2.2 2 2 0 00-3.4 2.2zM245 52.8a2 2 0 103.3-2.2 2 2 0 00-3.3 2.2zM209.9 52.8a2 2 0 103.3-2.2 2 2 0 00-3.3 2.2zM262.5 12.2a2 2 0 103.3-2.2 2 2 0 00-3.3 2.2zM262.5 25.7a2 2 0 103.3-2.2 2 2 0 00-3.3 2.2zM262.5 39.3a2 2 0 103.3-2.2 2 2 0 00-3.3 2.2zM262.5 52.8a2 2 0 103.3-2.2 2 2 0 00-3.3 2.2z"/></g></svg>